<svg xmlns="http://www.w3.org/2000/svg" width="192.334" height="331.24" viewBox="0 0 192.334 331.24">
  <g id="Grupo_60879" data-name="Grupo 60879" transform="translate(-225.5 -630.807)">
    <g id="Grupo_60843" data-name="Grupo 60843" transform="translate(225.5 728.281)">
      <g id="Grupo_60840" data-name="Grupo 60840" transform="translate(0 0)">
        <g id="Grupo_60838" data-name="Grupo 60838" transform="translate(0 18.972)">
          <path id="Trazado_105488" data-name="Trazado 105488" d="M465.337,335.376V217.121l-19.937,7.46-20.049-11.575a10.639,10.639,0,0,1-2.983,2.468c-5.9,3.405-15.46,3.405-21.358,0-5.762-3.326-5.878-8.667-.381-12.087l4.657,2.607V182.451h-14.43l-1.43,9.815L365.3,178.336l-76.8,44.343L273,217.121V335.374h0c0,2.761,1.823,5.52,5.472,7.626L365.3,393.13c41.416-22.109,59.536-34.726,70.388-40.639Z" transform="translate(-273.004 -178.336)" fill="#173d7a"/>
          <path id="Trazado_105489" data-name="Trazado 105489" d="M365.3,178.336l-76.8,44.343L273,217.121V335.374h0c0,2.761,1.823,5.52,5.472,7.626L365.3,393.13V178.338Z" transform="translate(-273.004 -178.336)" fill="#396caa"/>
        </g>
        <path id="Trazado_105490" data-name="Trazado 105490" d="M354.573,180.964l-.5,1.284.118.115c-.152.078-.309.151-.457.236-3.511,2.026-4.915,4.8-4.244,7.436a8.313,8.313,0,0,1,4.244-4.894,17.879,17.879,0,0,1,4.277-1.723v-2.542Z" transform="translate(-225.731 -157.79)" fill="#fff"/>
        <path id="Trazado_105491" data-name="Trazado 105491" d="M431.291,250.145a19.584,19.584,0,0,0-6.7-2.241l40.749-23.526L425.351,201.29a10.641,10.641,0,0,1-2.983,2.469c-5.9,3.406-15.46,3.406-21.358,0s-5.9-8.926,0-12.33a17.881,17.881,0,0,1,4.277-1.723L365.3,166.62l-86.826,50.129c-7.294,4.212-7.294,11.041,0,15.253l86.828,50.13,40.749-23.526a9.2,9.2,0,0,0,3.88,3.869c5.9,3.405,15.46,3.405,21.358,0S437.188,253.548,431.291,250.145Z" transform="translate(-273.004 -166.62)" fill="#5793ce"/>
        <g id="Grupo_60839" data-name="Grupo 60839" transform="translate(0.014 57.757)">
          <path id="Trazado_105492" data-name="Trazado 105492" d="M431.285,239.9c-5.9,3.4-15.46,3.4-21.358,0a9.2,9.2,0,0,1-3.88-3.869L365.3,259.556l-86.828-50.13c-3.086-1.781-4.852-4.032-5.328-6.354-.648,3.166,1.117,6.466,5.328,8.9L365.3,262.1l40.749-23.526a9.188,9.188,0,0,0,3.88,3.869c5.9,3.406,15.46,3.406,21.358,0,3.511-2.027,4.913-4.8,4.244-7.436A8.319,8.319,0,0,1,431.285,239.9Z" transform="translate(-273.013 -201.801)" fill="#fff"/>
          <path id="Trazado_105493" data-name="Trazado 105493" d="M366.612,225.813a22.538,22.538,0,0,1,3.138.732l37.611-21.716v-2.542Z" transform="translate(-215.042 -202.287)" fill="#fff"/>
        </g>
      </g>
    </g>
    <g id="Grupo_60849" data-name="Grupo 60849" transform="translate(242.33 630.807)">
      <g id="Grupo_60848" data-name="Grupo 60848">
        <g id="Grupo_60845" data-name="Grupo 60845" transform="translate(5.952)">
          <path id="Trazado_105500" data-name="Trazado 105500" d="M319.848,264.874s-6.144-3.1-9.919,1.516-9.169,15.507-9.336,22.867,5.825,6.864,9.387,5.122,13.965-16.835,14.6-19.792-.742-6.957-1.742-7.739S319.848,264.874,319.848,264.874Z" transform="translate(-278.7 -8.922)" fill="#5793ce"/>
          <path id="Trazado_105501" data-name="Trazado 105501" d="M317.76,264.133l.285,6.366a3.612,3.612,0,0,1-1.8,3.313,7.087,7.087,0,0,1-4.74.737c-4.63-.745-5.043-2.068-5.373-8.432S317.76,264.133,317.76,264.133Z" transform="translate(-275.271 -9.661)" fill="#d4ecff"/>
          <g id="Grupo_60844" data-name="Grupo 60844" transform="translate(0 113.239)">
            <path id="Trazado_105502" data-name="Trazado 105502" d="M306.776,256.81s-6.145-3.1-9.92,1.516-9.167,15.507-9.334,22.867,5.825,6.865,9.386,5.122,13.967-16.835,14.6-19.793-.743-6.955-1.744-7.737S306.776,256.81,306.776,256.81Z" transform="translate(-286.796 -127.156)" fill="#5793ce"/>
            <path id="Trazado_105503" data-name="Trazado 105503" d="M304.688,256.068l.285,6.366a3.61,3.61,0,0,1-1.8,3.311,7.083,7.083,0,0,1-4.74.737c-4.628-.743-5.043-2.066-5.373-8.43S304.688,256.068,304.688,256.068Z" transform="translate(-283.368 -127.895)" fill="#d4ecff"/>
            <path id="Trazado_105504" data-name="Trazado 105504" d="M361.9,188.466c-1.819-29.592-32.049,4.354-32.049,4.354L309.163,213.1l-17.306,19.646a18.365,18.365,0,0,0-4.628,14.752l7.536,57.388a5.639,5.639,0,0,0,5.656,4.9,19.182,19.182,0,0,0,2.792-.245,7.011,7.011,0,0,0,6.226-7.439l-1.378-53.673,37.8-22.766S363.719,218.058,361.9,188.466Z" transform="translate(-287.073 -176.355)" fill="#173d7a"/>
          </g>
          <path id="Trazado_105505" data-name="Trazado 105505" d="M376.3,195.429c-1.819-29.592-32.047,4.353-32.047,4.353l-20.69,20.279-18.631,20.467A18.365,18.365,0,0,0,300.3,255.28l7.536,57.387a5.64,5.64,0,0,0,5.655,4.9,19.148,19.148,0,0,0,2.792-.244,7.012,7.012,0,0,0,6.228-7.439l-1.378-53.673,39.125-23.586S378.115,225.021,376.3,195.429Z" transform="translate(-278.976 -58.804)" fill="#173d7a"/>
          <path id="Trazado_105506" data-name="Trazado 105506" d="M353.037,133.4c22.919,9.5,22.459,23.048,22.459,23.048s-4.489,49.665-2.957,82.835c.641,13.867-73.671,14.924-62.588-22.069,13.067-43.617,8.17-78.927,14.286-84.253S347.11,130.939,353.037,133.4Z" transform="translate(-273.601 -91.763)" fill="#ffca28"/>
          <path id="Trazado_105507" data-name="Trazado 105507" d="M349.516,144.1c-1.2,4.654-7.3,7.106-13.617,5.477s-10.475-6.72-9.277-11.373,7.3-7.106,13.617-5.478S350.714,139.444,349.516,144.1Z" transform="translate(-262.705 -90.452)" fill="#ffc2b0"/>
          <path id="Trazado_105508" data-name="Trazado 105508" d="M341.955,143.869l-4.217,4.578a2.773,2.773,0,0,0-.716,2.2l2.9,25.066a2.729,2.729,0,0,1-.544,1.972l-9.072,11.868a.819.819,0,0,1-1.432-.249l-4.939-15.546a2.732,2.732,0,0,1,.052-1.8l8.689-22.768a2.779,2.779,0,0,0,.121-1.563l-1.271-6.035Z" transform="translate(-264.321 -84.646)" fill="#fff"/>
          <path id="Trazado_105509" data-name="Trazado 105509" d="M340.188,151.586a16.563,16.563,0,0,1-4.142-.533,15.22,15.22,0,0,1-8.034-4.921,8.284,8.284,0,0,1,3.509-13.624,15.264,15.264,0,0,1,9.412-.426c6.9,1.776,11.411,7.478,10.064,12.707C349.923,148.954,345.449,151.586,340.188,151.586Zm-3.443-17.853a11.811,11.811,0,0,0-4.406.81,6.111,6.111,0,0,0-2.63,10.205,13.046,13.046,0,0,0,6.882,4.184c5.729,1.474,11.238-.63,12.283-4.69s-2.761-8.563-8.489-10.038A14.666,14.666,0,0,0,336.745,133.733Z" transform="translate(-263.125 -90.871)" fill="#fff"/>
          <path id="Trazado_105510" data-name="Trazado 105510" d="M330.53,133.245s.2.92-.2,8.183c-.125,2.282,7.87,4.414,9.936,2.348s1.24-4.215,1.736-11.985S330.53,133.245,330.53,133.245Z" transform="translate(-260.282 -92.645)" fill="#ffc2b0"/>
          <path id="Trazado_105511" data-name="Trazado 105511" d="M342,130.6s-1.969,7.2-11.674,9.967l.149-6.547Z" transform="translate(-260.282 -91.455)" fill="#ea9c92"/>
          <circle id="Elipse_1645" data-name="Elipse 1645" cx="17.641" cy="17.641" r="17.641" transform="translate(46.636 31.501) rotate(-59.496)" fill="#ffc2b0"/>
          <path id="Trazado_105512" data-name="Trazado 105512" d="M341.636,124.053s-9.713,4.16-16.438,4.207-5.243-5.584-5.243-5.584l19.963-2.886Z" transform="translate(-266.793 -98.149)" fill="#ea9c92"/>
          <path id="Trazado_105513" data-name="Trazado 105513" d="M326.124,133.427s8.461-3.592,15.884-2.094A7.774,7.774,0,0,1,346.494,134a2.648,2.648,0,0,0,1.357.981c1.316.3,3.47-5.163,6.029-5.287s4.265,1.687,2.168,5.046-1.389,7.115-.424,7.655,12.913-7.8,3.883-25.686-33.679-7.757-37.247-4.131c0,0-3.759,3.274-6.814.359C315.446,112.935,312.02,138.6,326.124,133.427Z" transform="translate(-269.726 -106.427)" fill="#21214b"/>
          <path id="Trazado_105514" data-name="Trazado 105514" d="M353.283,171.7v13.42a5.466,5.466,0,0,1-1.785,4.04l-27.568,25.136,3.132,4.79,37.982-24.9a7.411,7.411,0,0,0,3.015-5.218l2.6-24.9Z" transform="translate(-264.244 -70.732)" fill="#ffc2b0"/>
          <path id="Trazado_105515" data-name="Trazado 105515" d="M353.742,142.226s8.364,12.577,11.48,45.687c0,0-14.288,4.62-22.4,2S353.742,142.226,353.742,142.226Z" transform="translate(-253.787 -84.254)" fill="#ffca28"/>
          <path id="Trazado_105516" data-name="Trazado 105516" d="M342.438,152.047s-3.274,17.523-3.461,25.759a5.26,5.26,0,0,0,3.461,5.078h0Z" transform="translate(-254.926 -78.171)" fill="#ffa726"/>
        </g>
        <g id="Grupo_60846" data-name="Grupo 60846" transform="translate(4.407 133.542)">
          <path id="Trazado_105517" data-name="Trazado 105517" d="M368.022,215.038l-6.094-.8L322.6,191.524a5.471,5.471,0,0,0-4.92.2L289.8,207.814l-3.684-.487v3.668l0,0a1.434,1.434,0,0,0,.845,1.291l44.577,25.736a5.466,5.466,0,0,0,4.92-.2L366.819,220.3a1.984,1.984,0,0,0,1.2-1.655h0Z" transform="translate(-286.118 -187.567)" fill="#5793ce"/>
          <path id="Trazado_105518" data-name="Trazado 105518" d="M338.469,197.613,335.674,196H304.95l-15.146,8.74-3.684-.487v3.668l0,0a1.434,1.434,0,0,0,.845,1.291l44.577,25.736a4.613,4.613,0,0,0,2.539.476Z" transform="translate(-286.118 -184.492)" fill="#396caa"/>
          <path id="Trazado_105519" data-name="Trazado 105519" d="M287.756,201.312l-1.635-.217v3.668l0,0a1.434,1.434,0,0,0,.845,1.291l.787.453Z" transform="translate(-286.118 -181.335)" fill="#5793ce"/>
          <path id="Trazado_105520" data-name="Trazado 105520" d="M314.449,222.666a5.709,5.709,0,0,0,4.179-.259v-6.241h-4.179Z" transform="translate(-268.572 -172.001)" fill="#5793ce"/>
          <path id="Trazado_105521" data-name="Trazado 105521" d="M331.547,235.683l-44.577-25.735c-1.26-.729-1.1-2,.355-2.84l30.353-17.52a5.472,5.472,0,0,1,4.92-.2l44.576,25.736c1.262.729,1.1,2-.353,2.84l-30.353,17.518A5.461,5.461,0,0,1,331.547,235.683Z" transform="translate(-286.119 -188.893)" fill="#fff"/>
          <path id="Trazado_105522" data-name="Trazado 105522" d="M328.153,228.185l-37.065-21.4c-1.048-.606-.917-1.663.295-2.363l16.265-9.146a4.544,4.544,0,0,1,4.091-.17l37.065,21.4c1.048.606.917,1.663-.293,2.363l-16.266,9.146A4.549,4.549,0,0,1,328.153,228.185Z" transform="translate(-283.479 -185.296)" fill="#d4ecff"/>
        </g>
        <path id="Trazado_105523" data-name="Trazado 105523" d="M306.944,189.393l-.462,3.075a22.762,22.762,0,0,0,.2,7.886l.549,2.711a3.813,3.813,0,0,0,3.054,2.994h0a2.1,2.1,0,0,0,2.466-1.835l.735-6.576s1.682,2.206,2.494,2.206-.908-6.586-2.745-10.312S306.944,189.393,306.944,189.393Z" transform="translate(-269.255 -56)" fill="#ffc2b0"/>
        <path id="Trazado_105524" data-name="Trazado 105524" d="M322.889,162.164l-4.784,9.467a18.576,18.576,0,0,0-1.956,7.185L314.072,211.2l-6.293-.149-2.857-36.364a13.279,13.279,0,0,1,.164-3.362l3.261-18.44Z" transform="translate(-270.09 -77.654)" fill="#ffc2b0"/>
        <g id="Grupo_60847" data-name="Grupo 60847" transform="translate(0 114.261)">
          <path id="Trazado_105525" data-name="Trazado 105525" d="M331.424,245.53l-3.737-4.879-39.3-22.757a5.473,5.473,0,0,1-2.278-4.366l.034-32.18-2.259-2.95L286,177.167l0,0a1.434,1.434,0,0,1,1.542.089l44.545,25.79a5.473,5.473,0,0,1,2.278,4.366l-.039,35.046a1.987,1.987,0,0,1-.832,1.869h0Z" transform="translate(-283.099 -176.986)" fill="#173d7a"/>
          <path id="Trazado_105526" data-name="Trazado 105526" d="M304.243,227.077l-2.793-1.618-15.329-26.625.016-17.486-2.259-2.95L286,177.167l0,0a1.434,1.434,0,0,1,1.542.089l44.545,25.79a4.607,4.607,0,0,1,1.679,1.964Z" transform="translate(-283.099 -176.986)" fill="#396caa"/>
          <path id="Trazado_105527" data-name="Trazado 105527" d="M284.88,179.706l-1-1.308L286,177.167l0,0a1.434,1.434,0,0,1,1.542.089l.785.455Z" transform="translate(-283.099 -176.986)" fill="#5793ce"/>
          <path id="Trazado_105528" data-name="Trazado 105528" d="M315.651,193.257a5.712,5.712,0,0,1,1.861,3.752l-4.353,2.513-2.086-3.622Z" transform="translate(-266.256 -166.909)" fill="#274f89"/>
          <path id="Trazado_105529" data-name="Trazado 105529" d="M330.266,203.809l-44.545-25.79c-1.26-.73-2.283.042-2.285,1.723l-.039,35.046a5.467,5.467,0,0,0,2.279,4.364l44.545,25.791c1.26.729,2.283-.042,2.285-1.723l.037-35.046A5.465,5.465,0,0,0,330.266,203.809Z" transform="translate(-283.397 -176.517)" fill="#21214b"/>
        </g>
        <path id="Trazado_105530" data-name="Trazado 105530" d="M331.482,199.871l-.714,1.478a9.9,9.9,0,0,1-3.723,4.128l-4.424,2.727a4.405,4.405,0,0,1-4.518.1c-.05-.029-.1-.058-.151-.091a2.662,2.662,0,0,1-.376-4.089l4.623-4.754s-2.6,1.99-3.325,1.189c-.534-.586,2.518-3.452,4.863-3.546a9.255,9.255,0,0,0,4.612-1.935Z" transform="translate(-262.712 -51.518)" fill="#ffc2b0"/>
        <path id="Trazado_105531" data-name="Trazado 105531" d="M327.723,131.822s-16.95,18.444-23.788,35.363c0,0,5.8,10.443,19.984,14.54S327.723,131.822,327.723,131.822Z" transform="translate(-270.677 -90.698)" fill="#ffca28"/>
        <path id="Trazado_105532" data-name="Trazado 105532" d="M315.73,172.114l2.748-26.54L312,170.439A37.045,37.045,0,0,0,315.73,172.114Z" transform="translate(-265.679 -82.181)" fill="#ffa726"/>
        <path id="Trazado_105533" data-name="Trazado 105533" d="M328.207,130l-4.554-1.252s2.173,3.422,5.349,4.293,3.668-1.815,3.668-1.815Z" transform="translate(-258.464 -92.6)" fill="#fff"/>
      </g>
      <path id="Trazado_105534" data-name="Trazado 105534" d="M343.429,125.993a2.537,2.537,0,1,1-2.538-2.538A2.537,2.537,0,0,1,343.429,125.993Z" transform="translate(-249.358 -95.88)" fill="#fff"/>
    </g>
    <path id="Trazado_105537" data-name="Trazado 105537" d="M329.143,354.9l1.391.8,1.391-.8V238.772h-2.782Z" transform="translate(-12.734 606.348)" fill="#fff"/>
  </g>
</svg>
