<svg xmlns="http://www.w3.org/2000/svg" width="201" height="189" viewBox="0 0 201 189">
  <g id="Grupo_61539" data-name="Grupo 61539" transform="translate(-242.001 -468)">
    <g id="Right" transform="translate(242.092 468.152)">
      <rect id="BG" width="201" height="189" rx="5" transform="translate(-0.091 -0.152)" fill="#fff" opacity="0.949"/>
    </g>
    <g id="mysql" transform="translate(272.871 492.871)">
      <path id="Trazado_105542" data-name="Trazado 105542" d="M140.258,70.129a69.864,69.864,0,0,1-6,28.427c-.627,1.42-1.305,2.814-2.024,4.182a70.124,70.124,0,1,1,4.906-53.361q.421,1.365.79,2.759v0q.687,2.6,1.179,5.273.228,1.245.409,2.5c.083.561.16,1.122.226,1.689.126,1.013.226,2.035.306,3.063Q140.255,67.37,140.258,70.129Z" fill="#f2f2f2"/>
      <g id="Grupo_60855" data-name="Grupo 60855" transform="translate(88.728 10.867)">
        <path id="Trazado_105543" data-name="Trazado 105543" d="M367.961,76.958s2.033,2.091,2.381,3.658a2.16,2.16,0,0,0,.465-2.845A2.138,2.138,0,0,0,367.961,76.958Z" transform="translate(-355.889 -66.563)" fill="#5181a2"/>
        <path id="Trazado_105544" data-name="Trazado 105544" d="M373.094,80.938a22.92,22.92,0,0,0-4.786-1.783,5.434,5.434,0,0,1-3.8-3.432,103.7,103.7,0,0,0-4.969-11.083c-5.344-10.568-11.266-13.82-15.156-16.55a14.754,14.754,0,0,0-7.912-2.2,4.438,4.438,0,0,1-2.759-1.039c-2.041-1.717-6.054-3.735-7.331-2.98-1.569.93,0,3.08,2.2,5.808s2.673,5.751,4.239,9.815a9.676,9.676,0,0,0,2.324,3.684,2.471,2.471,0,0,1,.607,2.768,20.886,20.886,0,0,0-1.131,11.956c.988,4.82,3.252,4.763,3.252,4.763-.232-6.446,3.137-9.234,3.137-9.234a46.849,46.849,0,0,0,10.1,16.433c-5.691-2.032-9.93-11.324-9.93-11.324s-.464.464-.87,3.544-4.125,4.935-6.853-1.8.813-15.217.813-15.217c-1.569-.813-4.82-8.3-4.82-9.466s-1.28-3.715-2.845-5.284-4.646-6.1-1.045-8.186,10.743,3.541,10.743,3.541c11.266-.407,22.879,13.3,24.737,18.176s7.084,14.636,7.084,14.636a25.2,25.2,0,0,1,4.168,1.692Q372.724,79.544,373.094,80.938Z" transform="translate(-323.894 -39.669)" fill="#5181a2"/>
        <path id="Trazado_105545" data-name="Trazado 105545" d="M497.407,216.828c-.057-.026-.112-.055-.166-.08a11.211,11.211,0,0,1-5.052-5.4,8.322,8.322,0,0,1,4.276-1.772q.228,1.245.409,2.5c-.63.123-1.028.2-1.028.2,0,.355.5.885,1.254,1.491Q497.29,215.285,497.407,216.828Z" transform="translate(-446.086 -163.031)" fill="#5181a2"/>
      </g>
      <g id="Grupo_60856" data-name="Grupo 60856" transform="translate(1.749 68.406)">
        <path id="Trazado_105546" data-name="Trazado 105546" d="M41.172,283.939H35.684A251.875,251.875,0,0,0,33.855,256.5l-8.624,27.436H20.789l-8.753-27.3a227.155,227.155,0,0,0-1.159,23.761,69.468,69.468,0,0,1-4.491-13.33c.4-5.825.97-12.174,1.732-17.355h7.142L23.4,275.057l8.624-25.347h6.532S41.172,272.051,41.172,283.939Z" transform="translate(-6.385 -249.71)" fill="#ffa600"/>
        <path id="Trazado_105547" data-name="Trazado 105547" d="M143.034,283.221l5.662-.087s6.359,19.076,5.749,21.428c0,0,4.094-11.411,5.139-21.428h5.575s-2.962,20.209-12.021,30.836c-3.39,3.977-7.194,4.026-10.629,2.53v-3.052s4.705,1.655,7.145-1.829c1.964-2.805.088-7.642-1.627-12.785C147.612,297.588,143.034,283.221,143.034,283.221Z" transform="translate(-105.22 -273.978)" fill="#ffa600"/>
      </g>
      <g id="Grupo_60857" data-name="Grupo 60857" transform="translate(65.173 68.14)">
        <path id="Trazado_105548" data-name="Trazado 105548" d="M237.908,280.754l1.481-2.962s10.192,4.529,12.8,0,.087-6.968-5.052-9.669-10.54-6.1-8.188-13.5,14.808-6.881,18.38-3.31l-1.219,2.874s-9.233-3.92-11.759,1.219,4.181,7.578,5.749,8.275,10.279,4.268,9.321,10.627-4.878,10.279-13.85,9.495A20.52,20.52,0,0,1,237.908,280.754Z" transform="translate(-237.908 -248.771)" fill="#5181a2"/>
        <path id="Trazado_105549" data-name="Trazado 105549" d="M346.944,281.135c3.85-3.094,5.5-8.6,5.5-14.873,0-9.678-2.785-17.524-13.788-17.524-9.475,0-13.788,7.846-13.788,17.524s3.154,17.524,13.788,17.524a15.19,15.19,0,0,0,4.2-.553l8.192,4.806,2-3.921Zm-8.287-1.546c-6.166,0-7.995-5.968-7.995-13.327s1.743-13.327,7.995-13.327c6.377,0,7.992,5.965,7.992,13.327S345.035,279.589,338.657,279.589Z" transform="translate(-301.047 -248.738)" fill="#5181a2"/>
        <path id="Trazado_105550" data-name="Trazado 105550" d="M456.131,280.345c-.627,1.42-1.305,2.814-2.024,4.182H443.319V250.378h5.4v29.966h7.411Z" transform="translate(-387.049 -249.929)" fill="#5181a2"/>
      </g>
    </g>
  </g>
</svg>
