<svg xmlns="http://www.w3.org/2000/svg" width="115" height="115" viewBox="0 0 115 115">
  <g id="Grupo_61539" data-name="Grupo 61539" transform="translate(-264 -1759)">
    <rect id="Rectángulo_7678" data-name="Rectángulo 7678" width="115" height="115" rx="13" transform="translate(264 1759)" fill="#a9ebf4"/>
    <g id="Grupo_60889" data-name="Grupo 60889" transform="translate(-49.363 -378.529)">
      <g id="html" transform="translate(336 2153.799)">
        <path id="Trazado_105571" data-name="Trazado 105571" d="M93.807,7.5H54.874a3.222,3.222,0,0,0-3.222,3.222v73.6a3.222,3.222,0,0,0,3.222,3.222H108.63a3.222,3.222,0,0,0,3.222-3.222V24.193Zm0,0" transform="translate(-43.333 -6.292)" fill="#e7e7e7"/>
        <path id="Trazado_105572" data-name="Trazado 105572" d="M386.781,90.913v60.13a3.223,3.223,0,0,1-3.222,3.222h-4.2a3.222,3.222,0,0,0,3.222-3.222V87.027Zm0,0" transform="translate(-318.261 -73.011)" fill="#cecece"/>
        <path id="Trazado_105573" data-name="Trazado 105573" d="M313.395,7.5V21.017a3.222,3.222,0,0,0,3.222,3.222h14.823Zm0,0" transform="translate(-262.92 -6.292)" fill="#acacac"/>
        <path id="Trazado_105574" data-name="Trazado 105574" d="M47.96,150.347H10.549A3.049,3.049,0,0,1,7.5,147.3v-14.43a3.048,3.048,0,0,1,3.049-3.048H47.96a3.048,3.048,0,0,1,3.049,3.048V147.3A3.049,3.049,0,0,1,47.96,150.347Zm0,0" transform="translate(-6.292 -108.912)" fill="#ff6b81"/>
        <path id="Trazado_105575" data-name="Trazado 105575" d="M244.837,132.866V147.3a3.048,3.048,0,0,1-3.048,3.048h-3.249a3.048,3.048,0,0,0,3.048-3.048v-14.43a3.049,3.049,0,0,0-3.048-3.049h3.249A3.049,3.049,0,0,1,244.837,132.866Zm0,0" transform="translate(-200.121 -108.909)" fill="#ff435f"/>
        <path id="Trazado_105580" data-name="Trazado 105580" d="M69.339,17.015,65.646,13.6,56.267,4.921l-3.681-3.4c-.545-.5-1.317-1.5-2.093-1.516H11.541a4.435,4.435,0,0,0-4.43,4.43V19.7H4.257A4.261,4.261,0,0,0,0,23.956v14.43a4.261,4.261,0,0,0,4.257,4.256H7.111v9.025a1.208,1.208,0,0,0,2.416,0V42.643H41.668a4.261,4.261,0,0,0,4.256-4.256V23.956A4.261,4.261,0,0,0,41.668,19.7H28.1a1.208,1.208,0,0,0,0,2.416h13.57a1.842,1.842,0,0,1,1.84,1.84v14.43a1.842,1.842,0,0,1-1.84,1.84H4.257a1.842,1.842,0,0,1-1.84-1.84V23.956a1.842,1.842,0,0,1,1.84-1.84H20.742a1.208,1.208,0,1,0,0-2.416H9.527V4.43a2.015,2.015,0,0,1,2.013-2.013H49.266V14.725a4.434,4.434,0,0,0,4.43,4.43H67.31V78.031A2.016,2.016,0,0,1,65.3,80.045H11.541a2.016,2.016,0,0,1-2.013-2.014V59.345a1.208,1.208,0,0,0-2.416,0V78.031a4.435,4.435,0,0,0,4.43,4.43H65.3a4.435,4.435,0,0,0,4.43-4.43V17.9A1.209,1.209,0,0,0,69.339,17.015ZM53.7,16.739a2.016,2.016,0,0,1-2.014-2.013V3.977L65.44,16.739Zm0,0" transform="translate(0 0)"/>
        <path id="Trazado_105581" data-name="Trazado 105581" d="M147.045,290.586a1.207,1.207,0,0,0-1.708,0l-7.571,7.571a1.208,1.208,0,0,0,0,1.709l7.571,7.571a1.208,1.208,0,1,0,1.708-1.709l-6.717-6.717,6.717-6.717A1.207,1.207,0,0,0,147.045,290.586Zm0,0" transform="translate(-115.281 -243.489)"/>
        <path id="Trazado_105582" data-name="Trazado 105582" d="M278.016,307.437a1.209,1.209,0,0,0,1.709,0l7.571-7.571a1.208,1.208,0,0,0,0-1.709l-7.571-7.571a1.208,1.208,0,0,0-1.709,1.708l6.717,6.717-6.717,6.717A1.208,1.208,0,0,0,278.016,307.437Zm0,0" transform="translate(-232.943 -243.489)"/>
        <path id="Trazado_105583" data-name="Trazado 105583" d="M213.78,307.787a1.209,1.209,0,0,0,1.125-.767l5.948-15.142a1.208,1.208,0,1,0-2.249-.884l-5.948,15.142a1.209,1.209,0,0,0,1.124,1.65Zm0,0" transform="translate(-178.336 -243.485)"/>
      </g>
      <path id="Trazado_105584" data-name="Trazado 105584" d="M6.03-3.4a1.042,1.042,0,0,0-.406-.884,5.328,5.328,0,0,0-1.462-.65,10.368,10.368,0,0,1-1.672-.674A2.732,2.732,0,0,1,.81-8.055,2.381,2.381,0,0,1,1.26-9.48a2.937,2.937,0,0,1,1.293-.978,4.868,4.868,0,0,1,1.892-.352,4.43,4.43,0,0,1,1.882.383,3,3,0,0,1,1.283,1.08,2.826,2.826,0,0,1,.457,1.584H6.037a1.329,1.329,0,0,0-.427-1.053,1.753,1.753,0,0,0-1.2-.376,1.873,1.873,0,0,0-1.158.315.993.993,0,0,0-.413.829.951.951,0,0,0,.484.806,5.469,5.469,0,0,0,1.425.609A6.158,6.158,0,0,1,7.276-5.34a2.575,2.575,0,0,1,.792,1.923A2.372,2.372,0,0,1,7.1-1.409a4.239,4.239,0,0,1-2.607.728A5.034,5.034,0,0,1,2.422-1.1,3.279,3.279,0,0,1,1-2.239,2.922,2.922,0,0,1,.505-3.918H2.543q0,1.632,1.95,1.632a1.9,1.9,0,0,0,1.131-.295A.958.958,0,0,0,6.03-3.4ZM17.8-5.523a5.94,5.94,0,0,1-.447,2.4,4.12,4.12,0,0,1-1.239,1.635L17.757-.2,16.464.944l-2.1-1.686a4.443,4.443,0,0,1-.745.061,4.1,4.1,0,0,1-2.187-.589,3.913,3.913,0,0,1-1.49-1.683,5.781,5.781,0,0,1-.535-2.515v-.487a5.92,5.92,0,0,1,.525-2.563,3.907,3.907,0,0,1,1.483-1.7,4.079,4.079,0,0,1,2.19-.592,4.079,4.079,0,0,1,2.19.592,3.907,3.907,0,0,1,1.483,1.7A5.9,5.9,0,0,1,17.8-5.963Zm-2.058-.447a4.149,4.149,0,0,0-.555-2.356,1.809,1.809,0,0,0-1.584-.806,1.81,1.81,0,0,0-1.578.8A4.1,4.1,0,0,0,11.467-6v.481a4.2,4.2,0,0,0,.555,2.343,1.8,1.8,0,0,0,1.6.833,1.788,1.788,0,0,0,1.571-.8,4.176,4.176,0,0,0,.555-2.339ZM21.6-2.449h4.313V-.817H19.571v-9.858H21.6Z" transform="translate(346.131 2190.855)" fill="#12263f"/>
    </g>
  </g>
</svg>
