<svg xmlns="http://www.w3.org/2000/svg" width="505" height="452" viewBox="0 0 505 452">
  <g id="Grupo_61539" data-name="Grupo 61539" transform="translate(-574 -3504)">
    <g id="Grupo_60899" data-name="Grupo 60899">
      <rect id="Rectángulo_7694" data-name="Rectángulo 7694" width="505" height="452" rx="20" transform="translate(574 3504)" fill="#a9ebf4"/>
      <g id="Grupo_60898" data-name="Grupo 60898" transform="translate(0 -14)">
        <circle id="Elipse_1651" data-name="Elipse 1651" cx="31.5" cy="31.5" r="31.5" transform="translate(790 3566)" fill="#fff"/>
        <circle id="Elipse_1652" data-name="Elipse 1652" cx="31.5" cy="31.5" r="31.5" transform="translate(688 3643)" fill="#fff"/>
        <circle id="Elipse_1653" data-name="Elipse 1653" cx="31.5" cy="31.5" r="31.5" transform="translate(759 3748)" fill="#fff"/>
        <circle id="Elipse_1654" data-name="Elipse 1654" cx="31.5" cy="31.5" r="31.5" transform="translate(890 3649)" fill="#fff"/>
        <circle id="Elipse_1655" data-name="Elipse 1655" cx="31.5" cy="31.5" r="31.5" transform="translate(968 3754)" fill="#fff"/>
        <circle id="Elipse_1656" data-name="Elipse 1656" cx="31.5" cy="31.5" r="31.5" transform="translate(913 3858)" fill="#fff"/>
        <circle id="Elipse_1657" data-name="Elipse 1657" cx="31.5" cy="31.5" r="31.5" transform="translate(827 3857)" fill="#fff"/>
        <circle id="Elipse_1658" data-name="Elipse 1658" cx="31.5" cy="31.5" r="31.5" transform="translate(686 3857)" fill="#fff"/>
        <circle id="Elipse_1659" data-name="Elipse 1659" cx="31.5" cy="31.5" r="31.5" transform="translate(614 3748)" fill="#fff"/>
        <g id="Grupo_60890" data-name="Grupo 60890" transform="translate(-423.752 108.724) rotate(-7)">
          <path id="Trazado_105585" data-name="Trazado 105585" d="M-5272.345-8073.923l-42.966,31.238" transform="translate(6049.708 11700)" fill="none" stroke="#21214b" stroke-width="1"/>
          <path id="Polígono_68" data-name="Polígono 68" d="M5.5,0,11,9H0Z" transform="matrix(-0.574, -0.819, 0.819, -0.574, 731.31, 3666.186)" fill="#21214b"/>
        </g>
        <g id="Grupo_60891" data-name="Grupo 60891" transform="translate(-1592.516 783.175) rotate(-26)">
          <path id="Trazado_105585-2" data-name="Trazado 105585" d="M-5272.345-8073.923l-42.966,31.238" transform="translate(6049.708 11700)" fill="none" stroke="#21214b" stroke-width="1"/>
          <path id="Polígono_68-2" data-name="Polígono 68" d="M5.5,0,11,9H0Z" transform="matrix(-0.574, -0.819, 0.819, -0.574, 731.31, 3666.186)" fill="#21214b"/>
        </g>
        <g id="Grupo_60892" data-name="Grupo 60892" transform="translate(-2871.957 4542.725) rotate(-91)">
          <path id="Trazado_105585-3" data-name="Trazado 105585" d="M-5272.345-8073.923l-42.966,31.238" transform="translate(6049.708 11700)" fill="none" stroke="#21214b" stroke-width="1"/>
          <path id="Polígono_68-3" data-name="Polígono 68" d="M5.5,0,11,9H0Z" transform="matrix(-0.574, -0.819, 0.819, -0.574, 731.31, 3666.186)" fill="#21214b"/>
        </g>
        <g id="Grupo_60893" data-name="Grupo 60893" transform="translate(-1088.133 602.614) rotate(-18)">
          <path id="Trazado_105585-4" data-name="Trazado 105585" d="M-5272.345-8073.923l-42.966,31.238" transform="translate(6049.708 11700)" fill="none" stroke="#21214b" stroke-width="1"/>
          <path id="Polígono_68-4" data-name="Polígono 68" d="M5.5,0,11,9H0Z" transform="matrix(-0.574, -0.819, 0.819, -0.574, 731.31, 3666.186)" fill="#21214b"/>
        </g>
        <g id="Grupo_60894" data-name="Grupo 60894" transform="matrix(-0.951, -0.309, 0.309, -0.951, 842.896, 3865.327)">
          <path id="Trazado_105585-5" data-name="Trazado 105585" d="M42.966,31.238,0,0" transform="translate(9.396 8.871)" fill="none" stroke="#21214b" stroke-width="1"/>
          <path id="Polígono_68-5" data-name="Polígono 68" d="M5.5,0,11,9H0Z" transform="matrix(0.574, -0.819, 0.819, 0.574, 0, 9.011)" fill="#21214b"/>
        </g>
        <g id="Grupo_60895" data-name="Grupo 60895" transform="translate(899.472 3659.228) rotate(-173)">
          <path id="Trazado_105585-6" data-name="Trazado 105585" d="M42.966,31.238,0,0" transform="translate(9.396 8.871)" fill="none" stroke="#21214b" stroke-width="1"/>
          <path id="Polígono_68-6" data-name="Polígono 68" d="M5.5,0,11,9H0Z" transform="matrix(0.574, -0.819, 0.819, 0.574, 0, 9.011)" fill="#21214b"/>
        </g>
        <g id="Grupo_60896" data-name="Grupo 60896" transform="matrix(-0.966, -0.259, 0.259, -0.966, 984.119, 3760.502)">
          <path id="Trazado_105585-7" data-name="Trazado 105585" d="M42.966,31.238,0,0" transform="translate(9.396 8.871)" fill="none" stroke="#21214b" stroke-width="1"/>
          <path id="Polígono_68-7" data-name="Polígono 68" d="M5.5,0,11,9H0Z" transform="matrix(0.574, -0.819, 0.819, 0.574, 0, 9.011)" fill="#21214b"/>
        </g>
        <g id="Grupo_60897" data-name="Grupo 60897" transform="translate(948.871 3870.73) rotate(-92)">
          <path id="Trazado_105585-8" data-name="Trazado 105585" d="M35.53,25.178,0,0" transform="translate(16.832 14.931)" fill="none" stroke="#21214b" stroke-width="1"/>
          <path id="Polígono_68-8" data-name="Polígono 68" d="M5.5,0,11,9H0Z" transform="matrix(0.574, -0.819, 0.819, 0.574, 9.991, 16.855)" fill="#21214b"/>
        </g>
        <text id="_8" data-name="8" transform="translate(815 3605)" fill="#12263f" font-size="25" font-family="Roboto-Bold, Roboto" font-weight="700"><tspan x="0" y="0">8</tspan></text>
        <text id="_3" data-name="3" transform="translate(713 3682)" fill="#12263f" font-size="25" font-family="Roboto-Bold, Roboto" font-weight="700"><tspan x="0" y="0">3</tspan></text>
        <text id="_1" data-name="1" transform="translate(638 3788)" fill="#12263f" font-size="25" font-family="Roboto-Bold, Roboto" font-weight="700"><tspan x="0" y="0">1</tspan></text>
        <text id="_6" data-name="6" transform="translate(783 3788)" fill="#12263f" font-size="25" font-family="Roboto-Bold, Roboto" font-weight="700"><tspan x="0" y="0">6</tspan></text>
        <text id="_4" data-name="4" transform="translate(710 3897)" fill="#12263f" font-size="25" font-family="Roboto-Bold, Roboto" font-weight="700"><tspan x="0" y="0">4</tspan></text>
        <text id="_7" data-name="7" transform="translate(851 3897)" fill="#12263f" font-size="25" font-family="Roboto-Bold, Roboto" font-weight="700"><tspan x="0" y="0">7</tspan></text>
        <text id="_13" data-name="13" transform="translate(930 3897)" fill="#12263f" font-size="25" font-family="Roboto-Bold, Roboto" font-weight="700"><tspan x="0" y="0">13</tspan></text>
        <text id="_10" data-name="10" transform="translate(907 3687)" fill="#12263f" font-size="25" font-family="Roboto-Bold, Roboto" font-weight="700"><tspan x="0" y="0">10</tspan></text>
        <text id="_14" data-name="14" transform="translate(985 3794)" fill="#12263f" font-size="25" font-family="Roboto-Bold, Roboto" font-weight="700"><tspan x="0" y="0">14</tspan></text>
      </g>
    </g>
  </g>
</svg>
