<svg xmlns="http://www.w3.org/2000/svg" width="115" height="115" viewBox="0 0 115 115">
  <g id="Grupo_61539" data-name="Grupo 61539" transform="translate(-743 -983)">
    <g id="Grupo_60883" data-name="Grupo 60883" transform="translate(517 18)">
      <rect id="Rectángulo_7678" data-name="Rectángulo 7678" width="115" height="115" rx="13" transform="translate(226 965)" fill="#a9ebf4"/>
      <g id="recibo" transform="translate(199.66 980.909)">
        <g id="Grupo_60881" data-name="Grupo 60881" transform="translate(51.561 1.226)">
          <path id="Trazado_105554" data-name="Trazado 105554" d="M173.658,87.266l-4.81-4.555a.821.821,0,0,0-1.129,0l-5.63,5.332a.821.821,0,0,1-1.129,0l-5.63-5.332a.821.821,0,0,0-1.129,0l-5.63,5.332a.821.821,0,0,1-1.129,0l-5.2-4.921a1.452,1.452,0,0,0-2,0l-5.2,4.921a.821.821,0,0,1-1.129,0l-5.63-5.332a.821.821,0,0,0-1.129,0l-4.81,4.555a.821.821,0,0,1-1.385-.6V9.148a.821.821,0,0,1,1.392-.589l4.8,4.647a.821.821,0,0,0,1.142,0l5.617-5.442a.821.821,0,0,1,1.142,0l5.617,5.442a.821.821,0,0,0,1.142,0l5.617-5.442a.821.821,0,0,1,1.142,0l5.617,5.442a.821.821,0,0,0,1.142,0l5.617-5.442a.821.821,0,0,1,1.142,0l5.617,5.442a.821.821,0,0,0,1.142,0l4.8-4.647a.821.821,0,0,1,1.392.589V86.67a.821.821,0,0,1-1.385.6Z" transform="translate(-110.694 -7.532)" fill="#edf4ff"/>
          <path id="Trazado_105555" data-name="Trazado 105555" d="M122.361,12.637l2.678,2.6V88.8l-2.685,2.541a.821.821,0,0,1-1.385-.6V13.226a.821.821,0,0,1,1.392-.589Z" transform="translate(-110.691 -11.611)" fill="#dbeaff"/>
          <circle id="Elipse_1649" data-name="Elipse 1649" cx="14.663" cy="14.663" r="14.663" transform="translate(0.001 38.081)" fill="#ffe07d"/>
          <g id="Grupo_60880" data-name="Grupo 60880" transform="translate(0 38.081)">
            <path id="Trazado_105556" data-name="Trazado 105556" d="M74.538,270.625a14.467,14.467,0,0,1-2.035.142,14.663,14.663,0,1,1,0-29.326,14.467,14.467,0,0,1,2.035.142,14.663,14.663,0,0,0,0,29.043Z" transform="translate(-57.839 -241.441)" fill="#ffd064"/>
            <circle id="Elipse_1650" data-name="Elipse 1650" cx="8.646" cy="8.646" r="8.646" transform="translate(6.018 6.017)" fill="#ffd064"/>
          </g>
        </g>
        <g id="Grupo_60882" data-name="Grupo 60882" transform="translate(50.34 -0.001)">
          <path id="Trazado_105557" data-name="Trazado 105557" d="M339.916,275.283a1.221,1.221,0,0,0,1.647-1.8,6.344,6.344,0,0,0-3.175-1.412v-1.2a1.221,1.221,0,0,0-2.442,0v1.291c-.185.041-.373.087-.565.145a5,5,0,0,0-3.427,3.925,4.4,4.4,0,0,0,1.441,4.34,11.888,11.888,0,0,0,2.55,1.46v7.4a5.058,5.058,0,0,1-2.7-1.011,1.221,1.221,0,1,0-1.337,2.044,7.389,7.389,0,0,0,4.041,1.413v1.341a1.221,1.221,0,0,0,2.442,0v-1.438a6.02,6.02,0,0,0,4.733-4.94,5.285,5.285,0,0,0-3.638-6.047c-.359-.127-.728-.26-1.094-.4v-5.84A3.767,3.767,0,0,1,339.916,275.283Zm-1.247,7.812a2.881,2.881,0,0,1,2.044,3.34,3.628,3.628,0,0,1-2.324,2.81v-6.25Zm-3.765-4.444a1.994,1.994,0,0,1-.549-1.966,2.613,2.613,0,0,1,1.592-1.991v4.621A7.417,7.417,0,0,1,334.9,278.651Z" transform="translate(-285.603 -225.75)"/>
          <path id="Trazado_105558" data-name="Trazado 105558" d="M168.736.961a2.039,2.039,0,0,0-2.217.414L162,5.752,156.665.583a2.027,2.027,0,0,0-2.843,0l-5.338,5.171L143.148.583a2.027,2.027,0,0,0-2.843,0l-5.338,5.171L129.63.583a2.027,2.027,0,0,0-2.843,0l-5.338,5.171-4.518-4.377a2.042,2.042,0,0,0-3.463,1.466v13.4a1.221,1.221,0,1,0,2.442,0V3.786l4.117,3.989a2.033,2.033,0,0,0,2.842,0L128.207,2.6l5.338,5.17a2.033,2.033,0,0,0,2.842,0L141.725,2.6l5.338,5.17a2.033,2.033,0,0,0,2.842,0L155.242,2.6l5.338,5.17a2.033,2.033,0,0,0,2.842,0l4.117-3.989V58.114a1.221,1.221,0,1,0,2.442,0V2.841a2.038,2.038,0,0,0-1.245-1.88Z" transform="translate(-103.191 0.001)"/>
          <path id="Trazado_105559" data-name="Trazado 105559" d="M115.91,169.155a1.221,1.221,0,0,0-1.221,1.221V186l-4.136-3.917a2.047,2.047,0,0,0-2.807,0l-5.354,5.071-5.356-5.072a2.046,2.046,0,0,0-2.807,0l-5.354,5.071-4.921-4.66a2.676,2.676,0,0,0-3.678,0l-4.92,4.659L70,182.081a2.043,2.043,0,0,0-2.808,0L63.059,186v-9.9a15.884,15.884,0,1,0,0-31.134v-16.46a1.221,1.221,0,0,0-2.442,0v17.166a15.884,15.884,0,0,0,0,29.722v11.532a2.042,2.042,0,0,0,3.446,1.482l4.534-4.294,5.355,5.07a2.04,2.04,0,0,0,2.808,0l5.2-4.92a.233.233,0,0,1,.32,0l5.194,4.919a2.041,2.041,0,0,0,2.808,0l5.355-5.072,5.354,5.071a2.04,2.04,0,0,0,2.808,0l5.355-5.072,4.535,4.3a2.042,2.042,0,0,0,3.446-1.482V170.376a1.221,1.221,0,0,0-1.221-1.221Zm-63.128-8.622a13.442,13.442,0,1,1,13.442,13.442A13.457,13.457,0,0,1,52.782,160.533Z" transform="translate(-50.34 -106.562)"/>
          <path id="Trazado_105560" data-name="Trazado 105560" d="M179.6,140.094h32.937a1.221,1.221,0,0,0,0-2.442H179.6a1.221,1.221,0,1,0,0,2.442Z" transform="translate(-157.53 -115.242)"/>
          <path id="Trazado_105561" data-name="Trazado 105561" d="M179.6,185.461h32.937a1.221,1.221,0,1,0,0-2.442H179.6a1.221,1.221,0,1,0,0,2.442Z" transform="translate(-157.53 -153.223)"/>
          <path id="Trazado_105562" data-name="Trazado 105562" d="M179.6,94.728h32.937a1.221,1.221,0,0,0,0-2.442H179.6a1.221,1.221,0,1,0,0,2.442Z" transform="translate(-157.53 -77.261)"/>
          <path id="Trazado_105563" data-name="Trazado 105563" d="M107.037,280.769a9.867,9.867,0,1,0-9.867,9.867A9.878,9.878,0,0,0,107.037,280.769Zm-17.292,0a7.425,7.425,0,1,1,7.425,7.425A7.433,7.433,0,0,1,89.745,280.769Z" transform="translate(-81.285 -226.798)"/>
        </g>
      </g>
    </g>
  </g>
</svg>
