<svg xmlns="http://www.w3.org/2000/svg" width="143" height="89" viewBox="0 0 143 89">
  <g id="Grupo_60876" data-name="Grupo 60876" transform="translate(-200 -1041)">
    <g id="Grupo_60693" data-name="Grupo 60693" transform="translate(0 -2089)">
      <rect id="Rectángulo_7643" data-name="Rectángulo 7643" width="143" height="89" rx="7" transform="translate(200 3130)" fill="#fff"/>
    </g>
    <g id="mysql" transform="translate(236.896 1050.654)">
      <path id="Trazado_105542" data-name="Trazado 105542" d="M69.206,34.6a34.472,34.472,0,0,1-2.962,14.026c-.309.7-.644,1.388-1,2.063a34.6,34.6,0,1,1,2.421-26.329q.208.674.39,1.362h0q.339,1.284.582,2.6.112.614.2,1.234c.041.277.079.554.112.833.062.5.112,1,.151,1.511Q69.2,33.242,69.206,34.6Z" fill="#f2f2f2"/>
      <g id="Grupo_60855" data-name="Grupo 60855" transform="translate(43.78 5.362)">
        <path id="Trazado_105543" data-name="Trazado 105543" d="M367.961,76.833a5.251,5.251,0,0,1,1.175,1.805,1.066,1.066,0,0,0,.229-1.4A1.055,1.055,0,0,0,367.961,76.833Z" transform="translate(-362.004 -71.704)" fill="#5181a2"/>
        <path id="Trazado_105544" data-name="Trazado 105544" d="M348.17,60.032a11.311,11.311,0,0,0-2.362-.88,2.681,2.681,0,0,1-1.873-1.693,51.154,51.154,0,0,0-2.452-5.469,19.055,19.055,0,0,0-7.478-8.166,7.28,7.28,0,0,0-3.9-1.083,2.19,2.19,0,0,1-1.362-.513c-1.007-.847-2.987-1.843-3.617-1.47-.774.459,0,1.52,1.088,2.866s1.319,2.837,2.092,4.843a4.774,4.774,0,0,0,1.147,1.818,1.219,1.219,0,0,1,.3,1.366,10.305,10.305,0,0,0-.558,5.9c.487,2.378,1.6,2.35,1.6,2.35a5.678,5.678,0,0,1,1.548-4.556,23.117,23.117,0,0,0,4.986,8.108c-2.808-1-4.9-5.587-4.9-5.587s-.229.229-.429,1.749-2.035,2.435-3.381-.888.4-7.508.4-7.508c-.774-.4-2.378-4.1-2.378-4.671a5.02,5.02,0,0,0-1.4-2.607c-.774-.773-2.292-3.008-.516-4.039s5.3,1.747,5.3,1.747c5.559-.2,11.289,6.562,12.206,8.969s3.5,7.221,3.5,7.221a12.433,12.433,0,0,1,2.056.835Q347.988,59.344,348.17,60.032Z" transform="translate(-323.894 -39.669)" fill="#5181a2"/>
        <path id="Trazado_105545" data-name="Trazado 105545" d="M494.764,213.154l-.082-.04a5.532,5.532,0,0,1-2.493-2.665,4.106,4.106,0,0,1,2.11-.874q.112.614.2,1.234l-.507.1c0,.175.244.436.619.736Q494.706,212.393,494.764,213.154Z" transform="translate(-469.441 -186.609)" fill="#5181a2"/>
      </g>
      <g id="Grupo_60856" data-name="Grupo 60856" transform="translate(0.863 33.753)">
        <path id="Trazado_105546" data-name="Trazado 105546" d="M23.549,266.6H20.842a124.281,124.281,0,0,0-.9-13.538L15.684,266.6H13.492L9.173,253.126A112.081,112.081,0,0,0,8.6,264.851a34.278,34.278,0,0,1-2.216-6.577c.2-2.874.479-6.007.855-8.563h3.524l4.018,12.507,4.255-12.507H22.26S23.549,260.733,23.549,266.6Z" transform="translate(-6.385 -249.71)" fill="#ffa600"/>
        <path id="Trazado_105547" data-name="Trazado 105547" d="M142.769,283.177l2.794-.043s3.138,9.413,2.837,10.573a53.681,53.681,0,0,0,2.536-10.573h2.751s-1.461,9.971-5.931,15.215a4.155,4.155,0,0,1-5.244,1.248v-1.506s2.322.817,3.525-.9c.969-1.384.044-3.771-.8-6.308C145.028,290.266,142.769,283.177,142.769,283.177Z" transform="translate(-124.11 -278.616)" fill="#ffa600"/>
      </g>
      <g id="Grupo_60857" data-name="Grupo 60857" transform="translate(32.158 33.621)">
        <path id="Trazado_105548" data-name="Trazado 105548" d="M237.908,264.558l.731-1.461s5.029,2.235,6.318,0,.043-3.438-2.493-4.771-5.2-3.009-4.04-6.662,7.307-3.4,9.069-1.633l-.6,1.418s-4.556-1.934-5.8.6,2.063,3.739,2.837,4.083,5.072,2.106,4.6,5.244-2.407,5.072-6.834,4.685A10.125,10.125,0,0,1,237.908,264.558Z" transform="translate(-237.908 -248.777)" fill="#5181a2"/>
        <path id="Trazado_105549" data-name="Trazado 105549" d="M335.761,264.723c1.9-1.527,2.715-4.243,2.715-7.339,0-4.775-1.374-8.647-6.8-8.647-4.675,0-6.8,3.871-6.8,8.647s1.557,8.647,6.8,8.647a7.5,7.5,0,0,0,2.071-.273l4.042,2.371.989-1.935Zm-4.089-.763c-3.042,0-3.945-2.945-3.945-6.576s.86-6.576,3.945-6.576c3.147,0,3.943,2.943,3.943,6.576S334.819,263.961,331.672,263.961Z" transform="translate(-313.115 -248.738)" fill="#5181a2"/>
        <path id="Trazado_105550" data-name="Trazado 105550" d="M449.641,265.164c-.309.7-.644,1.388-1,2.064h-5.323v-16.85h2.665v14.786h3.657Z" transform="translate(-415.554 -250.156)" fill="#5181a2"/>
      </g>
    </g>
  </g>
</svg>
