<svg xmlns="http://www.w3.org/2000/svg" width="201" height="189" viewBox="0 0 201 189">
  <g id="Grupo_61539" data-name="Grupo 61539" transform="translate(-242.001 -1600)">
    <g id="Right" transform="translate(242.092 1600.152)">
      <rect id="BG" width="201" height="189" rx="5" transform="translate(-0.091 -0.152)" fill="#fff" opacity="0.949"/>
    </g>
    <path id="base-de-datos-en-la-nube" d="M47.237,61.109h4.624v4.624H47.237Zm18.495,0v4.624h4.624V61.109Zm-9.247,4.624h4.624V61.109H56.485Zm-9.247,36.99h4.624V98.1H47.237ZM65.732,98.1v4.624h4.624V98.1Zm-9.247,4.624h4.624V98.1H56.485ZM98.1,42.614H93.475v4.624H98.1Zm-9.247,0H84.227v4.624h4.624Zm-9.247,0H74.98v4.624H79.6ZM88.851,79.6H84.227v4.624h4.624Zm-9.247,0H74.98v4.624H79.6Zm18.495,0H93.475v4.624H98.1ZM21.807,62.066v63.775a2.313,2.313,0,0,0,2.312,2.312h9.673a6.936,6.936,0,1,1,0,4.624H24.119a6.944,6.944,0,0,1-6.936-6.936V62.066L7.258,71.99,3.989,68.721,19.495,53.216,35,68.721,31.732,71.99Zm16.183,68.4a2.312,2.312,0,1,0,2.312-2.312A2.313,2.313,0,0,0,37.99,130.464ZM58.8,137.4a6.936,6.936,0,1,1,6.936-6.936A6.944,6.944,0,0,1,58.8,137.4Zm0-4.624a2.312,2.312,0,1,0-2.312-2.312A2.313,2.313,0,0,0,58.8,132.776ZM128.153,19.495V83.27l9.925-9.925,3.269,3.269L125.841,92.12,110.335,76.614l3.269-3.269,9.925,9.925V19.495a2.313,2.313,0,0,0-2.312-2.312h-9.673a6.936,6.936,0,1,1,0-4.624h9.673a6.944,6.944,0,0,1,6.936,6.936Zm-20.807-4.624a2.312,2.312,0,1,0-2.312,2.312A2.313,2.313,0,0,0,107.346,14.871ZM86.539,21.807a6.936,6.936,0,1,1,6.936-6.936A6.944,6.944,0,0,1,86.539,21.807Zm0-4.624a2.312,2.312,0,1,0-2.312-2.312A2.313,2.313,0,0,0,86.539,17.183Zm57.8,113.281a13.885,13.885,0,0,1-13.871,13.871H84.227a13.872,13.872,0,0,1-2.169-27.574A16,16,0,0,1,83.5,111.97H44.925a6.944,6.944,0,0,1-6.936-6.936V42.614H14.871A13.872,13.872,0,0,1,12.7,15.04,16.184,16.184,0,0,1,42.572,8.775a13.416,13.416,0,0,1,4.665-.839A13.742,13.742,0,0,1,59.3,15.012a11.855,11.855,0,0,1,1.806-.141A13.833,13.833,0,0,1,74.171,33.366h26.24a6.944,6.944,0,0,1,6.936,6.936v65.345a16.091,16.091,0,0,1,4.582,4.85,13.416,13.416,0,0,1,4.665-.839,13.742,13.742,0,0,1,12.066,7.077,11.854,11.854,0,0,1,1.806-.141A13.885,13.885,0,0,1,144.336,130.464ZM102.722,74.98H42.614V88.851h60.109Zm0-4.624V56.485H42.614V70.356ZM14.871,37.99H61.109a9.249,9.249,0,1,0-2.49-18.1L56.6,20.45l-.756-1.958a9.117,9.117,0,0,0-13.164-4.675l-2.266,1.3L39.4,12.7a11.56,11.56,0,0,0-22.217,4.478v2.312H14.871a9.247,9.247,0,1,0,0,18.495Zm27.742,4.624v9.247h60.109V40.3a2.313,2.313,0,0,0-2.312-2.312H71.419a13.824,13.824,0,0,1-10.311,4.624Zm2.312,64.732H86.8a16,16,0,0,1,15.917-3.928V93.475H42.614v11.559A2.313,2.313,0,0,0,44.925,107.346Zm94.787,23.119a9.1,9.1,0,0,0-11.737-8.857l-2.021.564-.756-1.958a9.117,9.117,0,0,0-13.164-4.675l-2.266,1.3-1.013-2.407a11.559,11.559,0,0,0-22.217,4.476v2.312H84.227a9.247,9.247,0,0,0,0,18.495h46.237A9.257,9.257,0,0,0,139.712,130.464Zm-48.549,0h4.624v-4.624H91.163Zm27.742,0h4.624v-4.624h-4.624Zm-18.495,0h4.624v-4.624H100.41Zm9.247,0h4.624v-4.624h-4.624ZM40.3,28.742h4.624V24.119H40.3Zm9.247,0h4.624V24.119H49.549Zm-27.742,0h4.624V24.119H21.807Zm9.247,0h4.624V24.119H31.054Z" transform="translate(267.527 1621.832)" fill="#4dd0e1"/>
  </g>
</svg>
