<svg xmlns="http://www.w3.org/2000/svg" width="115" height="115" viewBox="0 0 115 115">
  <g id="Grupo_61539" data-name="Grupo 61539" transform="translate(-743 -7083)">
    <g id="Grupo_60921" data-name="Grupo 60921">
      <g id="Grupo_60919" data-name="Grupo 60919" transform="translate(517 6118)">
        <rect id="Rectángulo_7678" data-name="Rectángulo 7678" width="115" height="115" rx="13" transform="translate(226 965)" fill="#a9ebf4"/>
      </g>
      <g id="conocimiento" transform="translate(762.797 7103.471)">
        <g id="Flat_4_" transform="translate(1.289 1.145)">
          <path id="Trazado_105621" data-name="Trazado 105621" d="M12.047,383.319a5.068,5.068,0,0,1,5.069-5.068H79.531v-4.344H17.116a9.413,9.413,0,0,0,0,18.826H79.531v-4.344H17.116a5.069,5.069,0,0,1-5.069-5.069Z" transform="translate(-7.703 -320.904)" fill="#cbdcfb"/>
          <path id="Trazado_105622" data-name="Trazado 105622" d="M102.869,403.906h-60.1a5.068,5.068,0,1,0,0,10.137h60.1Z" transform="translate(-33.359 -346.56)" fill="#fff"/>
          <path id="Trazado_105623" data-name="Trazado 105623" d="M38.191,423.906a5.07,5.07,0,0,0,4.58,7.241h60.1V426.8h-60.1a5.069,5.069,0,0,1-4.58-2.9Z" transform="translate(-33.359 -363.663)" fill="#e4e8ed"/>
          <path id="Trazado_105624" data-name="Trazado 105624" d="M60.047,281.147a2.9,2.9,0,0,1,2.9-2.9h50.685v-4.344H62.944a7.241,7.241,0,1,0,0,14.481h50.685v-4.344H62.944A2.9,2.9,0,0,1,60.047,281.147Z" transform="translate(-48.752 -235.385)" fill="#f88fa4"/>
          <path id="Trazado_105625" data-name="Trazado 105625" d="M136.967,303.906H88.6a2.9,2.9,0,1,0,0,5.793h48.368Z" transform="translate(-74.407 -261.041)" fill="#fff"/>
          <path id="Trazado_105626" data-name="Trazado 105626" d="M177.562,68.906V90.628s-4.344,2.9-15.93,2.9-15.93-2.9-15.93-2.9V68.906Z" transform="translate(-125.719 -60.072)" fill="#616161"/>
          <path id="Trazado_105627" data-name="Trazado 105627" d="M145.7,188.906v4.344s4.344,2.9,15.93,2.9,15.93-2.9,15.93-2.9v-4.344s-4.344,2.9-15.93,2.9S145.7,188.906,145.7,188.906Z" transform="translate(-125.719 -162.695)" fill="#424242"/>
          <path id="Trazado_105628" data-name="Trazado 105628" d="M411.5,166.147H405.7V161.8a2.9,2.9,0,1,1,5.793,0Z" transform="translate(-348.067 -137.039)" fill="#616161"/>
          <path id="Trazado_105629" data-name="Trazado 105629" d="M127.836,16.595,101.77,25.284,75.7,16.595,101.77,7.906Z" transform="translate(-65.856 -7.906)" fill="#616161"/>
          <path id="Trazado_105630" data-name="Trazado 105630" d="M120.885,51.906,101.77,58.278,82.654,51.906,75.7,54.223l26.067,8.689,26.067-8.689Z" transform="translate(-65.856 -45.534)" fill="#424242"/>
        </g>
        <g id="Grupo_60920" data-name="Grupo 60920" transform="translate(12.874 27.574)">
          <path id="Trazado_105631" data-name="Trazado 105631" d="M87.7,436.406h2.172v2.172H87.7Z" transform="translate(-87.703 -400.782)" fill="#fff"/>
          <path id="Trazado_105632" data-name="Trazado 105632" d="M295.7,190.406h2.172v2.172H295.7Z" transform="translate(-265.582 -190.406)" fill="#fff"/>
        </g>
        <g id="Outline_4_" transform="translate(0.203 0)">
          <path id="Trazado_105633" data-name="Trazado 105633" d="M74.2,287.4v-6.517H67.252v-4.344H64.935v-3.62h2.317v-6.517H49.926v2.172H65.08v2.172H20.136v2.172H62.763v3.62H15.481a1.81,1.81,0,1,1,0-3.62h2.483V270.75H15.481a3.982,3.982,0,1,0,0,7.965h49.6v2.172H27.645v2.172H72.031v2.172H10.7a6.155,6.155,0,1,0,0,12.309H61.863v-2.172H10.7a3.982,3.982,0,0,1,0-7.965H69.714v3.62H21.563V293.2H69.714v2.172H64.035v2.172h8v2.172H10.7a8.327,8.327,0,0,1,0-16.654H25.473v-2.172H15.481a6.155,6.155,0,0,1,0-12.309H47.754v-2.172H15.481A8.323,8.323,0,0,0,9.915,280.92a10.5,10.5,0,0,0,.787,20.965H74.2v-6.517H71.886V287.4Z" transform="translate(-0.203 -227.827)"/>
          <path id="Trazado_105634" data-name="Trazado 105634" d="M117.7,436.406h2.172v2.172H117.7Z" transform="translate(-100.687 -373.208)"/>
          <path id="Trazado_105635" data-name="Trazado 105635" d="M64.471,32.282l.484.323c.189.126,4.753,3.079,16.532,3.079S97.831,32.73,98.019,32.6l.484-.323V14l6.517-2.172V22.078a3.989,3.989,0,0,0-2.9,3.831v5.431h7.965V25.908a3.989,3.989,0,0,0-2.9-3.831V11.1l3.8-1.266-11.406-3.8-.687,2.061,5.224,1.741L81.487,17.378,58.855,9.834,81.487,2.29,96.834,7.406l.687-2.061L81.487,0l-29.5,9.834L64.471,14Zm43.444-6.374v3.258H104.3V25.908a1.81,1.81,0,0,1,3.62,0ZM66.644,14.72l14.843,4.948L96.331,14.72v8.509H93.652V25.4h2.679v2.172H91.624v2.172h4.706v1.309c-1.4.682-5.9,2.456-14.843,2.456s-13.451-1.777-14.843-2.455Z" transform="translate(-44.487 0)"/>
        </g>
      </g>
    </g>
  </g>
</svg>
