<svg xmlns="http://www.w3.org/2000/svg" width="90" height="90" viewBox="0 0 90 90">
  <g id="Grupo_60922" data-name="Grupo 60922" transform="translate(-217 -6044)">
    <g id="creatividad" transform="translate(223.082 6050.082)">
      <g id="Grupo_60905" data-name="Grupo 60905" transform="translate(41.364 47.48)">
        <circle id="Elipse_1660" data-name="Elipse 1660" cx="2.5" cy="2.5" r="2.5" transform="translate(29.635 0.356)" fill="#ff826e"/>
        <circle id="Elipse_1661" data-name="Elipse 1661" cx="2.5" cy="2.5" r="2.5" transform="translate(13.635 9.356)" fill="#ff826e"/>
        <circle id="Elipse_1662" data-name="Elipse 1662" cx="2.5" cy="2.5" r="2.5" transform="translate(-0.365 19.356)" fill="#ff826e"/>
      </g>
      <path id="Trazado_105589" data-name="Trazado 105589" d="M71.348,28.31a6.126,6.126,0,0,1-6.091,6.715H28.562A8.567,8.567,0,0,1,20,26.341a8.157,8.157,0,0,1,.257-1.908A8.691,8.691,0,0,1,28.44,17.9a3.205,3.205,0,0,1,.342.012V17.9a13.459,13.459,0,1,1,26.494-4.758,7.312,7.312,0,0,1,8.44,5.076,7.265,7.265,0,0,1-.11,4.575H65A6.3,6.3,0,0,1,71.348,28.31Z" transform="translate(4.24 0.223)" fill="#e6e9ed"/>
      <path id="Trazado_105590" data-name="Trazado 105590" d="M27.794,56.893H9.446A2.454,2.454,0,0,1,7,54.446,2.464,2.464,0,0,1,9.446,52H29.017a2.454,2.454,0,0,1,2.446,2.446,2.464,2.464,0,0,1-2.446,2.446Z" transform="translate(1.339 11.381)" fill="#ccd1d9"/>
      <path id="Trazado_105591" data-name="Trazado 105591" d="M29.164,48.012a2.44,2.44,0,0,1,2.3,2.434,2.464,2.464,0,0,1-2.446,2.446H9.446A2.454,2.454,0,0,1,7,50.446a2.392,2.392,0,0,1,.722-1.725A2.338,2.338,0,0,1,9.3,48.012.6.6,0,0,1,9.446,48H29.017A.6.6,0,0,1,29.164,48.012Z" transform="translate(1.339 10.489)" fill="#ccd1d9"/>
      <path id="Trazado_105592" data-name="Trazado 105592" d="M10.563,54.248a.6.6,0,0,0-.147.012,7.285,7.285,0,0,0-1.468-1.541A18.3,18.3,0,0,1,2.013,37.6,18.492,18.492,0,0,1,19.479,20.024a18.159,18.159,0,0,1,4.783.391h.012a8.157,8.157,0,0,0-.257,1.908,8.567,8.567,0,0,0,8.562,8.684h4.587A18.325,18.325,0,0,1,31.65,52.793a6.5,6.5,0,0,0-1.37,1.468.6.6,0,0,0-.147-.012Z" transform="translate(0.223 4.24)" fill="#fcd770"/>
      <circle id="Elipse_1663" data-name="Elipse 1663" cx="2.5" cy="2.5" r="2.5" transform="translate(25 44.836)" fill="#ff826e"/>
      <circle id="Elipse_1664" data-name="Elipse 1664" cx="2.5" cy="2.5" r="2.5" transform="translate(14 32.836)" fill="#ff826e"/>
      <circle id="Elipse_1665" data-name="Elipse 1665" cx="2.5" cy="2.5" r="2.5" transform="translate(14 48.836)" fill="#ff826e"/>
      <path id="Trazado_105593" data-name="Trazado 105593" d="M10,56H27.124a7.345,7.345,0,0,1-7.339,7.339H17.339A7.345,7.345,0,0,1,10,56Z" transform="translate(2.008 12.274)" fill="#969faa"/>
      <path id="Trazado_105594" data-name="Trazado 105594" d="M42,24h2.446v2.446H42Z" transform="translate(9.15 5.133)"/>
      <path id="Trazado_105595" data-name="Trazado 105595" d="M27.893,20.446V18a4.893,4.893,0,0,0,0,9.785h15.9V25.339h-15.9a2.446,2.446,0,0,1,0-4.893Z" transform="translate(4.91 3.794)"/>
      <path id="Trazado_105596" data-name="Trazado 105596" d="M46.182,7.865a9.8,9.8,0,0,0-13.839,0l1.73,1.73a7.349,7.349,0,0,1,10.38,0Z" transform="translate(6.995 0.893)"/>
      <path id="Trazado_105597" data-name="Trazado 105597" d="M73.167,46.257A3.664,3.664,0,0,0,69.722,48.7H58.489V37.695a1.224,1.224,0,0,1,1.223-1.223H69.5a7.338,7.338,0,0,0,7.3-8.056,7.532,7.532,0,0,0-7.4-6.62,8.567,8.567,0,0,0-6.94-9.654,8.831,8.831,0,0,0-1.994-.114,14.676,14.676,0,0,0-28.891,3.65c0,.432.021.865.059,1.3a9.881,9.881,0,0,0-7.981,6.291A19.561,19.561,0,0,0,1.016,41.791a19.387,19.387,0,0,0,7.4,16.124c.049.038.091.087.138.127a3.622,3.622,0,0,0-.484,5.339A3.654,3.654,0,0,0,10.785,69.5h.1a8.568,8.568,0,0,0,8.464,7.339h2.446A8.568,8.568,0,0,0,30.258,69.5h.1a3.654,3.654,0,0,0,2.715-6.116,3.623,3.623,0,0,0-.489-5.344c.017-.015.033-.033.051-.048A19.473,19.473,0,0,0,39.15,48.7h3.437V66.051a3.67,3.67,0,1,0,2.446,0V48.7h4.893A3.674,3.674,0,0,0,53.6,45.034V37.695a3.674,3.674,0,0,0-3.669-3.669H32.8a7.338,7.338,0,0,1-7.338-7.443A7.479,7.479,0,0,1,32.7,19.349H32.8a7.339,7.339,0,0,1,7.339,7.338h2.446A9.776,9.776,0,0,0,34.1,16.993a12.433,12.433,0,0,1-.077-1.315,12.234,12.234,0,0,1,24.05-3.167,8.513,8.513,0,0,0-5.7,8.059h2.446A6.113,6.113,0,0,1,66.784,18.8a6.012,6.012,0,0,1-.089,3.811l-.579,1.632h3.118a5.075,5.075,0,0,1,5.132,4.408A4.895,4.895,0,0,1,69.5,34.025H59.712a3.674,3.674,0,0,0-3.669,3.669V56.267a3.67,3.67,0,1,0,2.446,0V51.15H69.722a3.663,3.663,0,1,0,3.444-4.893ZM43.811,70.72A1.223,1.223,0,1,1,45.034,69.5,1.224,1.224,0,0,1,43.811,70.72ZM30.356,59.712a1.223,1.223,0,1,1,0,2.446H10.785a1.223,1.223,0,1,1,0-2.446ZM21.794,74.39H19.347A6.127,6.127,0,0,1,13.355,69.5H27.786A6.127,6.127,0,0,1,21.794,74.39Zm8.562-7.339H10.785a1.223,1.223,0,0,1,0-2.446H30.356a1.223,1.223,0,0,1,0,2.446ZM51.15,37.695v7.339a1.224,1.224,0,0,1-1.223,1.223H39.771a19.741,19.741,0,0,0,.371-3.669,19.444,19.444,0,0,0-.983-6.116H49.926A1.224,1.224,0,0,1,51.15,37.695ZM25.835,33.557c.163.165.336.316.509.468h-6a3.661,3.661,0,1,0-4.668,4.668v9.013a3.67,3.67,0,1,0,2.446,0V38.693a3.666,3.666,0,0,0,2.221-2.221h16.2a17,17,0,0,1,1.147,6.116,17.236,17.236,0,0,1-.4,3.669H31.354a3.67,3.67,0,1,0,0,2.446h5.2a17.072,17.072,0,0,1-5.43,7.362,7.8,7.8,0,0,0-1.194,1.2H11.2A8.854,8.854,0,0,0,9.935,56,16.975,16.975,0,0,1,3.46,41.888,17.125,17.125,0,0,1,23.077,25.647c-.032.3-.054.6-.057.9A9.713,9.713,0,0,0,25.835,33.557ZM18.124,51.15A1.223,1.223,0,1,1,16.9,49.926,1.224,1.224,0,0,1,18.124,51.15ZM16.9,36.472a1.223,1.223,0,1,1,1.223-1.223A1.224,1.224,0,0,1,16.9,36.472ZM29.133,47.48a1.223,1.223,0,1,1-1.223-1.223A1.224,1.224,0,0,1,29.133,47.48ZM57.265,60.935a1.223,1.223,0,1,1,1.223-1.223A1.224,1.224,0,0,1,57.265,60.935Zm15.9-9.785a1.223,1.223,0,1,1,1.223-1.223A1.224,1.224,0,0,1,73.167,51.15Z"/>
      <path id="Trazado_105598" data-name="Trazado 105598" d="M8.236,31.527l-2.279-.892A14.7,14.7,0,0,0,5.2,33.306l2.406.442A12.023,12.023,0,0,1,8.236,31.527Z" transform="translate(0.937 6.613)"/>
      <path id="Trazado_105599" data-name="Trazado 105599" d="M5,35a14.7,14.7,0,0,0,3.356,9.341l1.885-1.557A12.257,12.257,0,0,1,7.446,35Z" transform="translate(0.893 7.587)"/>
    </g>
    <rect id="Rectángulo_7734" data-name="Rectángulo 7734" width="90" height="90" transform="translate(217 6044)" fill="none"/>
  </g>
</svg>
