<svg xmlns="http://www.w3.org/2000/svg" width="90" height="90" viewBox="0 0 90 90">
  <g id="Grupo_60924" data-name="Grupo 60924" transform="translate(-629 -6044)">
    <g id="diagrama" transform="translate(635 6050)">
      <g id="Grupo_60906" data-name="Grupo 60906" transform="translate(9.562 2.223)">
        <circle id="Elipse_1666" data-name="Elipse 1666" cx="5" cy="5" r="5" transform="translate(48.438 -0.387)" fill="#ff826e"/>
        <circle id="Elipse_1667" data-name="Elipse 1667" cx="5" cy="5" r="5" transform="translate(24.438 21.613)" fill="#ff826e"/>
        <ellipse id="Elipse_1668" data-name="Elipse 1668" cx="4.5" cy="5" rx="4.5" ry="5" transform="translate(0.438 43.613)" fill="#ff826e"/>
      </g>
      <path id="Trazado_105600" data-name="Trazado 105600" d="M69.141,45.9V53.24l-3.046.783a17.643,17.643,0,0,1-1.688,4.085l1.6,2.7L60.811,66l-2.7-1.59A17.643,17.643,0,0,1,54.023,66.1l-.783,3.046H45.9L45.118,66.1a17.643,17.643,0,0,1-4.085-1.688L38.33,66l-5.2-5.186,1.6-2.7a17.643,17.643,0,0,1-1.688-4.085L30,53.24V45.9l3.046-.783a18.885,18.885,0,0,1,1.064-2.887h5.675a12.232,12.232,0,1,0,9.785-4.893,12.285,12.285,0,0,0-4.893,1.015V30H53.24l.783,3.046a17.643,17.643,0,0,1,4.085,1.688l2.7-1.6,5.2,5.2-1.6,2.7A17.643,17.643,0,0,1,66.1,45.118Z" transform="translate(6.472 6.472)" fill="#ffc729"/>
      <path id="Trazado_105601" data-name="Trazado 105601" d="M48.232,36a12.232,12.232,0,1,1-9.785,4.893h2.446a2.454,2.454,0,0,0,2.446-2.446V37.015A12.285,12.285,0,0,1,48.232,36Zm4.893,12.232a4.893,4.893,0,1,0-4.893,4.893A4.891,4.891,0,0,0,53.124,48.232Z" transform="translate(7.811 7.811)" fill="#fcd770"/>
      <path id="Trazado_105602" data-name="Trazado 105602" d="M66.463,12.446v9.785a2.454,2.454,0,0,1-2.446,2.446H44.446A2.454,2.454,0,0,1,42,22.232V12.446A2.454,2.454,0,0,1,44.446,10H64.017A2.454,2.454,0,0,1,66.463,12.446Z" transform="translate(9.15 2.008)" fill="#e6e9ed"/>
      <path id="Trazado_105603" data-name="Trazado 105603" d="M46.463,30.446v9.785a2.454,2.454,0,0,1-2.446,2.446H24.446A2.454,2.454,0,0,1,22,40.232V30.446A2.454,2.454,0,0,1,24.446,28H44.017A2.454,2.454,0,0,1,46.463,30.446Z" transform="translate(4.686 6.025)" fill="#e6e9ed"/>
      <path id="Trazado_105604" data-name="Trazado 105604" d="M2,58.232V48.446A2.454,2.454,0,0,1,4.446,46H24.017a2.454,2.454,0,0,1,2.446,2.446v9.785a2.454,2.454,0,0,1-2.446,2.446H4.446A2.454,2.454,0,0,1,2,58.232Z" transform="translate(0.223 10.042)" fill="#e6e9ed"/>
      <path id="Trazado_105605" data-name="Trazado 105605" d="M53.6,10.785a3.674,3.674,0,0,0-3.669,3.669V24.24A3.674,3.674,0,0,0,53.6,27.91H73.166a3.674,3.674,0,0,0,3.669-3.669V14.455a3.674,3.674,0,0,0-3.669-3.669H68.242A6.053,6.053,0,0,0,69.5,7.116,6.116,6.116,0,0,0,57.389,5.893H43.811a6.123,6.123,0,0,0-6.116,6.116V23.14a6.135,6.135,0,0,0-4.769,4.769H19.347a6.123,6.123,0,0,0-6.116,6.116V45.157A6.127,6.127,0,0,0,8.339,51.15a6.053,6.053,0,0,0,1.255,3.669H4.669A3.674,3.674,0,0,0,1,58.489v9.785a3.674,3.674,0,0,0,3.669,3.669H24.24a3.674,3.674,0,0,0,3.669-3.669V58.489a3.674,3.674,0,0,0-3.669-3.669H19.316a6.053,6.053,0,0,0,1.255-3.669,6.127,6.127,0,0,0-4.893-5.992V34.025a3.674,3.674,0,0,1,3.669-3.669H32.926a6.073,6.073,0,0,0,1.13,2.446H29.133a3.674,3.674,0,0,0-3.669,3.669v9.785a3.674,3.674,0,0,0,3.669,3.669h9.639c-.077.216-.159.431-.228.651l-3.3.848v9.236l3.3.846a18.27,18.27,0,0,0,1.26,3.048L38.073,67.48,44.6,74.012l2.925-1.73a18.264,18.264,0,0,0,3.049,1.26l.845,3.294h9.237l.845-3.294a18.412,18.412,0,0,0,3.049-1.26l2.925,1.73,6.532-6.532-1.731-2.925a18.269,18.269,0,0,0,1.26-3.048l3.3-.848V51.424l-3.3-.846a18.27,18.27,0,0,0-1.26-3.048L74.012,44.6,67.48,38.073,64.555,39.8a18.18,18.18,0,0,0-3.049-1.26l-.845-3.3H52.148A3.664,3.664,0,0,0,48.7,32.8H43.779a6.053,6.053,0,0,0,1.255-3.669,6.127,6.127,0,0,0-4.893-5.992V12.008a3.674,3.674,0,0,1,3.669-3.669H57.389a6.073,6.073,0,0,0,1.13,2.446Zm-28.133,47.7v9.785A1.224,1.224,0,0,1,24.24,69.5H4.669a1.224,1.224,0,0,1-1.223-1.223V58.489a1.224,1.224,0,0,1,1.223-1.223H24.24A1.224,1.224,0,0,1,25.463,58.489ZM18.124,51.15a3.669,3.669,0,1,1-3.669-3.669A3.674,3.674,0,0,1,18.124,51.15ZM59.488,40.52l.689.185a15.82,15.82,0,0,1,3.789,1.566l.619.357,2.506-1.484,3.848,3.848L69.457,47.5l.357.619a15.729,15.729,0,0,1,1.566,3.788l.186.689,2.824.724v5.442l-2.824.725-.186.689a15.778,15.778,0,0,1-1.566,3.788l-.357.619,1.482,2.509-3.848,3.847-2.506-1.482-.619.357a15.753,15.753,0,0,1-3.788,1.566l-.69.185-.725,2.826H53.322L52.6,71.564l-.69-.185a15.8,15.8,0,0,1-3.788-1.566l-.619-.357-2.506,1.482-3.848-3.847,1.482-2.509-.357-.619a15.729,15.729,0,0,1-1.566-3.788l-.186-.689-2.824-.724V53.322l2.824-.725.186-.689a15.866,15.866,0,0,1,.691-1.98h2.662a13.536,13.536,0,1,0,8.315-6.819V37.695h6.39Zm-7.115,5.737v-.585A11.015,11.015,0,1,1,46.9,49.926H48.7A3.674,3.674,0,0,0,52.373,46.257Zm-2.446-9.785v9.785A1.224,1.224,0,0,1,48.7,47.48H29.133a1.224,1.224,0,0,1-1.223-1.223V36.472a1.225,1.225,0,0,1,1.223-1.223H48.7A1.225,1.225,0,0,1,49.926,36.472Zm-7.339-7.339a3.669,3.669,0,1,1-3.669-3.669A3.674,3.674,0,0,1,42.587,29.133Zm31.8-14.678V24.24a1.225,1.225,0,0,1-1.223,1.223H53.6a1.225,1.225,0,0,1-1.223-1.223V14.455A1.225,1.225,0,0,1,53.6,13.232H73.166A1.225,1.225,0,0,1,74.39,14.455ZM59.712,7.116a3.669,3.669,0,1,1,3.669,3.669A3.674,3.674,0,0,1,59.712,7.116Z" transform="translate(0 0)"/>
      <path id="Trazado_105606" data-name="Trazado 105606" d="M45,13H62.124v2.446H45Z" transform="translate(9.819 2.678)"/>
      <path id="Trazado_105607" data-name="Trazado 105607" d="M45,17H62.124v2.446H45Z" transform="translate(9.819 3.571)"/>
      <path id="Trazado_105608" data-name="Trazado 105608" d="M25,31H42.124v2.446H25Z" transform="translate(5.356 6.695)"/>
      <path id="Trazado_105609" data-name="Trazado 105609" d="M25,35H42.124v2.446H25Z" transform="translate(5.356 7.587)"/>
      <path id="Trazado_105610" data-name="Trazado 105610" d="M5,49H22.124v2.446H5Z" transform="translate(0.893 10.712)"/>
      <path id="Trazado_105611" data-name="Trazado 105611" d="M5,53H22.124v2.446H5Z" transform="translate(0.893 11.604)"/>
      <path id="Trazado_105612" data-name="Trazado 105612" d="M47.116,53.232A6.116,6.116,0,1,0,41,47.116,6.123,6.123,0,0,0,47.116,53.232Zm0-9.785a3.669,3.669,0,1,1-3.669,3.669A3.674,3.674,0,0,1,47.116,43.446Z" transform="translate(8.926 8.926)"/>
    </g>
    <rect id="Rectángulo_7735" data-name="Rectángulo 7735" width="90" height="90" transform="translate(629 6044)" fill="none"/>
  </g>
</svg>
