<svg xmlns="http://www.w3.org/2000/svg" width="180" height="180" viewBox="0 0 180 180">
  <g id="Grupo_60929" data-name="Grupo 60929" transform="translate(-304 -11266)">
    <rect id="Rectángulo_7746" data-name="Rectángulo 7746" width="180" height="180" transform="translate(304 11266)" fill="#fff"/>
    <g id="analisis-de-los-datos" transform="translate(336.655 11259.733)">
      <g id="Grupo_60926" data-name="Grupo 60926" transform="translate(2.051 38.205)">
        <path id="Trazado_105638" data-name="Trazado 105638" d="M94.448,183.994a4.1,4.1,0,0,1-4.1,4.1H11.6a4.1,4.1,0,0,1-4.1-4.1V83.648H94.448Z" transform="translate(-7.5 -72.711)" fill="#edebed"/>
        <path id="Trazado_105639" data-name="Trazado 105639" d="M292.8,98.65v96.244a4.1,4.1,0,0,1-4.1,4.1h-8.2a4.1,4.1,0,0,0,4.1-4.1V98.65Z" transform="translate(-205.856 -83.611)" fill="#dbd9dc"/>
        <path id="Trazado_105640" data-name="Trazado 105640" d="M94.448,58.686H7.5V47.749a4.1,4.1,0,0,1,4.1-4.1H90.347a4.1,4.1,0,0,1,4.1,4.1Z" transform="translate(-7.5 -43.648)" fill="#c3aff0"/>
        <path id="Trazado_105641" data-name="Trazado 105641" d="M292.8,47.751V58.688h-8.2V47.751a4.1,4.1,0,0,0-4.1-4.1h8.2A4.1,4.1,0,0,1,292.8,47.751Z" transform="translate(-205.856 -43.649)" fill="#a69ded"/>
        <path id="Trazado_105642" data-name="Trazado 105642" d="M108.043,189.424a1.367,1.367,0,0,1-1.367,1.367H38.867a1.367,1.367,0,0,1-1.367-1.367V98.648h70.543Z" transform="translate(-29.297 -83.61)" fill="#fff"/>
        <path id="Trazado_105643" data-name="Trazado 105643" d="M107.556,151.069H68.867A1.367,1.367,0,0,1,67.5,149.7V130.015a1.367,1.367,0,0,1,1.367-1.367h51.4a1.367,1.367,0,0,1,1.367,1.367v9.57Z" transform="translate(-51.095 -105.407)" fill="#bde4ff"/>
        <path id="Trazado_105644" data-name="Trazado 105644" d="M0,0H19.975V8.2H0Z" transform="translate(106.419 80.862) rotate(45)" fill="#edebed"/>
        <path id="Trazado_105645" data-name="Trazado 105645" d="M198.4,211.7a34.724,34.724,0,1,1,49.108,0A34.724,34.724,0,0,1,198.4,211.7Z" transform="translate(-138.817 -122.68)" fill="#ffe07d"/>
        <path id="Trazado_105646" data-name="Trazado 105646" d="M339.063,187.145a34.72,34.72,0,0,1-38.823,34.481,34.724,34.724,0,0,0,0-68.962,34.722,34.722,0,0,1,38.823,34.481Z" transform="translate(-220.199 -122.679)" fill="#ffd064"/>
        <path id="Trazado_105647" data-name="Trazado 105647" d="M226,227.7a26.522,26.522,0,1,1,37.508,0A26.522,26.522,0,0,1,226,227.7Z" transform="translate(-160.614 -144.478)" fill="#fff"/>
        <path id="Trazado_105648" data-name="Trazado 105648" d="M336.836,257.623h-5.468A1.367,1.367,0,0,1,330,256.256V233.015a1.367,1.367,0,0,1,1.367-1.367h5.468a1.367,1.367,0,0,1,1.367,1.367v23.241A1.367,1.367,0,0,1,336.836,257.623Z" transform="translate(-241.822 -180.245)" fill="#fc8d94"/>
        <path id="Trazado_105649" data-name="Trazado 105649" d="M276.836,286.686h-5.468A1.367,1.367,0,0,1,270,285.319v-12.3a1.367,1.367,0,0,1,1.367-1.367h5.468a1.367,1.367,0,0,1,1.367,1.367v12.3A1.367,1.367,0,0,1,276.836,286.686Z" transform="translate(-198.227 -209.308)" fill="#bde4ff"/>
        <path id="Trazado_105650" data-name="Trazado 105650" d="M420.052,395.478,407.9,383.326a1.364,1.364,0,0,1,0-1.929l9.644-9.644a1.364,1.364,0,0,1,1.929,0L431.626,383.9a8.184,8.184,0,1,1-11.573,11.573Z" transform="translate(-298.132 -281.751)" fill="#d19a6e"/>
        <path id="Trazado_105651" data-name="Trazado 105651" d="M424.294,376.571,412.72,388.144l-4.823-4.823a1.361,1.361,0,0,1,0-1.928l9.644-9.646a1.365,1.365,0,0,1,1.93,0Z" transform="translate(-298.13 -281.747)" fill="#ffe07d"/>
        <path id="Trazado_105652" data-name="Trazado 105652" d="M442.9,395.475a8.134,8.134,0,0,1-3.679,2.121A8.177,8.177,0,0,0,437.1,389.7L424.95,377.55a1.363,1.363,0,0,0-1.93,0l5.8-5.8a1.363,1.363,0,0,1,1.93,0L442.9,383.9a8.184,8.184,0,0,1,0,11.573Z" transform="translate(-309.408 -281.749)" fill="#bc845e"/>
        <path id="Trazado_105653" data-name="Trazado 105653" d="M435.623,376.57l-5.8,5.8L425,377.548a1.361,1.361,0,0,0-1.91-.019l5.779-5.783a1.365,1.365,0,0,1,1.931,0Z" transform="translate(-309.46 -281.747)" fill="#ffd064"/>
      </g>
      <g id="Grupo_60927" data-name="Grupo 60927" transform="translate(0 36.157)">
        <path id="Trazado_105654" data-name="Trazado 105654" d="M136.994,138.91l-12.152-12.152a3.418,3.418,0,0,0-4.829,0l-.488.488-3.316-3.315A36.787,36.787,0,0,0,91.05,66.217V42.309A6.159,6.159,0,0,0,84.9,36.157H6.152A6.159,6.159,0,0,0,0,42.309V61.371a2.051,2.051,0,0,0,4.1,0V55.3H8.2v88.725a3.421,3.421,0,0,0,3.418,3.418h52.77a2.051,2.051,0,0,0,0-4.1H12.3V55.3H78.745V66.65a36.5,36.5,0,0,0-4.1,1.089V62.816A3.421,3.421,0,0,0,71.226,59.4h-51.4a3.421,3.421,0,0,0-3.418,3.418V82.5a3.421,3.421,0,0,0,3.418,3.418H53.454A36.793,36.793,0,0,0,78.745,138.7v4.642H73.96a2.051,2.051,0,0,0,0,4.1h5.468a3.421,3.421,0,0,0,3.418-3.418V139.3c1.106.1,2.221.151,3.345.151.253,0,.5,0,.757-.009V149.49a2.053,2.053,0,0,1-2.051,2.051H6.152A2.053,2.053,0,0,1,4.1,149.49V70.941a2.051,2.051,0,0,0-4.1,0V149.49a6.159,6.159,0,0,0,6.152,6.152H84.9a6.159,6.159,0,0,0,6.152-6.152V139.13a36.376,36.376,0,0,0,16.47-6.489l3.306,3.306-.456.456a3.419,3.419,0,0,0,0,4.829l12.152,12.152a10.234,10.234,0,1,0,14.473-14.473ZM4.1,42.309a2.053,2.053,0,0,1,2.051-2.051H84.9a2.053,2.053,0,0,1,2.051,2.051V51.2H4.1ZM82.847,55.3h4.1V65.907c-.252,0-.5-.009-.757-.009-1.124,0-2.239.052-3.345.151ZM55.778,81.818H20.507V63.5H70.543v5.874A37.02,37.02,0,0,0,55.895,81.824C55.856,81.822,55.818,81.818,55.778,81.818Zm7.31,43.959a32.674,32.674,0,1,1,23.1,9.57,32.711,32.711,0,0,1-23.1-9.57Zm47.649,4.281q.744-.669,1.459-1.381.744-.744,1.438-1.523l2.992,2.992-2.9,2.9Zm11.691.086,2.887,2.887-8.673,8.673-2.887-2.887Zm11.666,20.34a6.139,6.139,0,0,1-8.673,0l-5.88-5.88,8.673-8.673,5.88,5.88a6.132,6.132,0,0,1,0,8.673Z" transform="translate(0 -36.157)"/>
        <path id="Trazado_105655" data-name="Trazado 105655" d="M259.545,183.334a28.559,28.559,0,1,0,0,40.408A28.605,28.605,0,0,0,259.545,183.334Zm-2.9,37.508a24.46,24.46,0,1,1,0-34.607A24.5,24.5,0,0,1,256.645,220.842Z" transform="translate(-153.15 -137.022)"/>
        <path id="Trazado_105656" data-name="Trazado 105656" d="M331.386,224.157h-5.468a3.421,3.421,0,0,0-3.418,3.418v23.241a3.421,3.421,0,0,0,3.418,3.418h5.468a3.421,3.421,0,0,0,3.418-3.418V227.575A3.422,3.422,0,0,0,331.386,224.157Zm-.684,25.975h-4.1V228.258h4.1Z" transform="translate(-234.322 -172.754)"/>
        <path id="Trazado_105657" data-name="Trazado 105657" d="M271.386,264.157h-5.468a3.421,3.421,0,0,0-3.418,3.418v12.3a3.421,3.421,0,0,0,3.418,3.418h5.468a3.421,3.421,0,0,0,3.418-3.418v-12.3A3.422,3.422,0,0,0,271.386,264.157ZM270.7,279.2h-4.1V268.258h4.1Z" transform="translate(-190.727 -201.817)"/>
        <path id="Trazado_105658" data-name="Trazado 105658" d="M87.479,295.208a2.051,2.051,0,0,0-2.051-2.051H62.051a2.051,2.051,0,0,0,0,4.1H85.428A2.051,2.051,0,0,0,87.479,295.208Z" transform="translate(-43.595 -222.888)"/>
        <path id="Trazado_105659" data-name="Trazado 105659" d="M62.051,267.258H85.428a2.051,2.051,0,0,0,0-4.1H62.051a2.051,2.051,0,0,0,0,4.1Z" transform="translate(-43.595 -201.09)"/>
        <path id="Trazado_105660" data-name="Trazado 105660" d="M90.213,235.208a2.051,2.051,0,0,0-2.051-2.051H62.051a2.051,2.051,0,1,0,0,4.1H88.162A2.051,2.051,0,0,0,90.213,235.208Z" transform="translate(-43.595 -179.293)"/>
        <path id="Trazado_105661" data-name="Trazado 105661" d="M60,385.208v4.1a2.051,2.051,0,0,0,4.1,0v-4.1a2.051,2.051,0,0,0-4.1,0Z" transform="translate(-43.595 -288.28)"/>
        <path id="Trazado_105662" data-name="Trazado 105662" d="M90,365.208v9.57a2.051,2.051,0,1,0,4.1,0v-9.57a2.051,2.051,0,0,0-4.1,0Z" transform="translate(-65.392 -273.748)"/>
        <path id="Trazado_105663" data-name="Trazado 105663" d="M152.051,347.765a2.051,2.051,0,0,0,2.051-2.051V325.208a2.051,2.051,0,0,0-4.1,0v20.507A2.051,2.051,0,0,0,152.051,347.765Z" transform="translate(-108.987 -244.685)"/>
        <path id="Trazado_105664" data-name="Trazado 105664" d="M180,365.208v9.57a2.051,2.051,0,0,0,4.1,0v-9.57a2.051,2.051,0,0,0-4.1,0Z" transform="translate(-130.784 -273.748)"/>
        <path id="Trazado_105665" data-name="Trazado 105665" d="M120,345.208v15.038a2.051,2.051,0,0,0,4.1,0V345.208a2.051,2.051,0,0,0-4.1,0Z" transform="translate(-87.189 -259.217)"/>
      </g>
    </g>
  </g>
</svg>
