<svg xmlns="http://www.w3.org/2000/svg" width="180" height="180" viewBox="0 0 180 180">
  <g id="Grupo_60928" data-name="Grupo 60928" transform="translate(-304 -11643)">
    <rect id="Rectángulo_7747" data-name="Rectángulo 7747" width="180" height="180" transform="translate(304 11643)" fill="#fff"/>
    <g id="marca-de-verificacion" transform="translate(331 11672.175)">
      <path id="Trazado_105666" data-name="Trazado 105666" d="M235.059,130.743h-69.7A7.362,7.362,0,0,1,158,123.381V17.362A7.362,7.362,0,0,1,165.362,10h69.7a7.362,7.362,0,0,1,7.362,7.362V123.381A7.362,7.362,0,0,1,235.059,130.743Zm0,0" transform="translate(-119.225 -7.546)" fill="#b0e7f8"/>
      <path id="Trazado_105667" data-name="Trazado 105667" d="M198,64h64.789v91.784H198Zm0,0" transform="translate(-149.408 -48.294)" fill="#fff"/>
      <path id="Trazado_105668" data-name="Trazado 105668" d="M270.817,267.049l-9.671,7.058a1.839,1.839,0,0,1-2.833-2.058l3.724-11.379-9.719-7.028a1.84,1.84,0,0,1,1.078-3.331h11.994l3.675-11.37a1.84,1.84,0,0,1,3.5,0l3.675,11.37h11.994a1.84,1.84,0,0,1,1.078,3.331l-9.719,7.028,3.724,11.379a1.84,1.84,0,0,1-2.834,2.058Zm0,0" transform="translate(-189.82 -179.341)" fill="#ffcb7c"/>
      <path id="Trazado_105669" data-name="Trazado 105669" d="M68.9,39.449A29.424,29.424,0,1,0,48.961,67.328l7.176,7.216V63.716A29.418,29.418,0,0,0,68.9,39.449Zm0,0" transform="translate(-7.546 -7.546)" fill="#cbe558"/>
      <path id="Trazado_105670" data-name="Trazado 105670" d="M68.9,39.449A29.449,29.449,0,1,1,39.449,10,29.45,29.45,0,0,1,68.9,39.449Zm0,0" transform="translate(-7.546 -7.546)" fill="#cbe558"/>
      <path id="Trazado_105671" data-name="Trazado 105671" d="M91.941,78.938l-11.18,11.18-4.933-4.933-6.942,6.942L80.761,104,98.883,85.879Zm0,0" transform="translate(-51.981 -59.565)" fill="#fff"/>
      <path id="Trazado_105672" data-name="Trazado 105672" d="M115.835,0H47.529a9.777,9.777,0,0,0-5.46,1.66A31.9,31.9,0,1,0,31.9,63.807a32.11,32.11,0,0,0,4.417-.3v52.332a9.828,9.828,0,0,0,9.816,9.816h69.7a9.828,9.828,0,0,0,9.816-9.816V9.816A9.828,9.828,0,0,0,115.835,0ZM4.908,31.9A27,27,0,1,1,47.2,54.149a2.454,2.454,0,0,0-1.061,2.021v4.88l-2.981-3a2.456,2.456,0,0,0-2.533-.591A27.016,27.016,0,0,1,4.908,31.9Zm106.018.491v72.642H51.046V57.426a31.945,31.945,0,0,0,9.019-10.537h30.38a2.454,2.454,0,0,0,0-4.908H62.173A31.891,31.891,0,0,0,63.8,32.312h36.459a2.454,2.454,0,1,0,0-4.908H63.488a31.609,31.609,0,0,0-2.8-9.243h50.235Zm9.816,83.44a4.914,4.914,0,0,1-4.908,4.908h-69.7a4.914,4.914,0,0,1-4.908-4.908V63.075l4.908,4.935v39.481a2.454,2.454,0,0,0,2.454,2.454h64.789a2.454,2.454,0,0,0,2.454-2.454V15.706a2.454,2.454,0,0,0-2.454-2.454H57.771a32.151,32.151,0,0,0-8.884-8.344h66.948a4.914,4.914,0,0,1,4.908,4.908Zm0,0"/>
      <path id="Trazado_105673" data-name="Trazado 105673" d="M322.407,460a2.454,2.454,0,1,0,0,4.908h.023a2.454,2.454,0,0,0-.023-4.908Zm0,0" transform="translate(-241.433 -347.11)"/>
      <path id="Trazado_105674" data-name="Trazado 105674" d="M280.7,240.311H270.488l-3.126-9.67a4.294,4.294,0,0,0-8.171,0l-3.126,9.671H245.857a4.294,4.294,0,0,0-2.516,7.774l8.267,5.979-3.167,9.676a4.292,4.292,0,0,0,6.613,4.8l8.224-6,8.223,6a4.295,4.295,0,0,0,6.614-4.8l-3.167-9.676,8.267-5.979a4.294,4.294,0,0,0-2.518-7.774Zm-10.078,10.825a2.455,2.455,0,0,0-.894,2.752l3.133,9.569-8.133-5.936a2.451,2.451,0,0,0-2.893,0l-8.133,5.936,3.133-9.569a2.455,2.455,0,0,0-.894-2.752l-8.182-5.917h10.1a2.455,2.455,0,0,0,2.335-1.7l3.091-9.562,3.091,9.562a2.455,2.455,0,0,0,2.335,1.7h10.1Zm0,0" transform="translate(-182.279 -171.795)"/>
      <path id="Trazado_105675" data-name="Trazado 105675" d="M400.993,171.059a2.456,2.456,0,1,0,1.735.72A2.47,2.47,0,0,0,400.993,171.059Zm0,0" transform="translate(-300.733 -129.079)"/>
      <path id="Trazado_105676" data-name="Trazado 105676" d="M93.071,76.6,86.13,69.656a2.453,2.453,0,0,0-3.47,0L73.215,79.1l-3.2-3.2a2.454,2.454,0,0,0-3.471,0L59.6,82.845a2.455,2.455,0,0,0,0,3.47L71.479,98.189a2.454,2.454,0,0,0,3.46.012L93.071,80.068A2.454,2.454,0,0,0,93.071,76.6ZM73.215,92.984l-8.4-8.4,3.471-3.47,3.2,3.2a2.456,2.456,0,0,0,3.471,0l9.445-9.446,3.471,3.471Zm0,0" transform="translate(-44.434 -52.019)"/>
    </g>
  </g>
</svg>
