<svg xmlns="http://www.w3.org/2000/svg" width="180" height="180" viewBox="0 0 180 180">
  <g id="Grupo_60950" data-name="Grupo 60950" transform="translate(-304 -12352)">
    <g id="Grupo_60931" data-name="Grupo 60931" transform="translate(0 1086)">
      <rect id="Rectángulo_7746" data-name="Rectángulo 7746" width="180" height="180" transform="translate(304 11266)" fill="#fff"/>
    </g>
    <g id="lupa" transform="translate(344 12384)">
      <path id="Trazado_105678" data-name="Trazado 105678" d="M385.981,376.288a6.854,6.854,0,1,1-9.694,9.694L354.22,363.914a57.724,57.724,0,0,0,9.694-9.694Z" transform="translate(-273.275 -273.275)" fill="#4dbbeb"/>
      <path id="Trazado_105679" data-name="Trazado 105679" d="M321.1,311.41l9.783,9.783a57.722,57.722,0,0,1-9.694,9.694L311.41,321.1v0a43.712,43.712,0,0,0,9.691-9.691Z" transform="translate(-240.248 -240.248)" fill="#fff5cd"/>
      <path id="Trazado_105680" data-name="Trazado 105680" d="M96.836,53.418a43.183,43.183,0,0,1-8.268,25.459,43.712,43.712,0,0,1-9.691,9.691,43.4,43.4,0,1,1,17.959-35.15Z" transform="translate(-7.715 -7.715)" fill="#4dbbeb"/>
      <path id="Trazado_105681" data-name="Trazado 105681" d="M84.277,50A34.277,34.277,0,1,1,50,84.277,34.316,34.316,0,0,1,84.277,50Z" transform="translate(-38.574 -38.574)" fill="#bee7f4"/>
      <path id="Trazado_105682" data-name="Trazado 105682" d="M114.322,101.4l-30.5-30.5A45.293,45.293,0,0,0,91.406,45.7a45.7,45.7,0,1,0-45.7,45.7A45.3,45.3,0,0,0,70.894,83.82l8.431,8.431,0,0L101.4,114.322A9.14,9.14,0,1,0,114.322,101.4ZM74.614,81.076a45.857,45.857,0,0,0,6.462-6.462L87.559,81.1A55.469,55.469,0,0,1,81.1,87.559ZM4.57,45.7A41.126,41.126,0,1,1,69.82,79h0A41.112,41.112,0,0,1,4.57,45.7ZM111.09,111.09a4.567,4.567,0,0,1-6.462,0L84.337,90.8A60.046,60.046,0,0,0,90.8,84.338l20.292,20.292a4.566,4.566,0,0,1,0,6.461Z"/>
      <path id="Trazado_105683" data-name="Trazado 105683" d="M113.125,76.563a36.563,36.563,0,1,0-36.562,36.563A36.6,36.6,0,0,0,113.125,76.563ZM76.563,108.555a31.992,31.992,0,1,1,31.992-31.992A32.029,32.029,0,0,1,76.563,108.555Z" transform="translate(-30.859 -30.859)"/>
      <path id="Trazado_105684" data-name="Trazado 105684" d="M216.58,100.565a2.285,2.285,0,0,0,1.314-2.953A27.465,27.465,0,0,0,192.285,80a2.285,2.285,0,0,0,0,4.57,23.008,23.008,0,0,1,21.342,14.681,2.283,2.283,0,0,0,2.953,1.314Z" transform="translate(-146.582 -61.719)"/>
      <path id="Trazado_105685" data-name="Trazado 105685" d="M302.285,190a2.285,2.285,0,1,0,2.285,2.285A2.286,2.286,0,0,0,302.285,190Z" transform="translate(-231.445 -146.582)"/>
    </g>
  </g>
</svg>
