<svg xmlns="http://www.w3.org/2000/svg" width="180" height="180" viewBox="0 0 180 180">
  <g id="Grupo_60949" data-name="Grupo 60949" transform="translate(-304 -12749)">
    <g id="Grupo_60934" data-name="Grupo 60934" transform="translate(0 1483)">
      <rect id="Rectángulo_7746" data-name="Rectángulo 7746" width="180" height="180" transform="translate(304 11266)" fill="#fff"/>
    </g>
    <g id="sugerencia" transform="translate(273.099 12772.045)">
      <g id="Grupo_60935" data-name="Grupo 60935" transform="translate(102 112.456)">
        <path id="Trazado_105686" data-name="Trazado 105686" d="M220.147,432.226H187.97a2.682,2.682,0,0,1-2.682-2.682v-3.218a2.682,2.682,0,0,1,2.682-2.682h32.178a2.682,2.682,0,0,1,2.682,2.682v3.218A2.681,2.681,0,0,1,220.147,432.226Z" transform="translate(-185.288 -423.645)" fill="#4172ca"/>
      </g>
      <g id="Grupo_60936" data-name="Grupo 60936" transform="translate(126.134 112.457)">
        <path id="Trazado_105687" data-name="Trazado 105687" d="M286.93,423.646H276.2a2.682,2.682,0,0,1,2.682,2.682v3.218a2.682,2.682,0,0,1-2.682,2.682H286.93a2.682,2.682,0,0,0,2.682-2.682v-3.218A2.682,2.682,0,0,0,286.93,423.646Z" transform="translate(-276.204 -423.646)" fill="#3a67c1"/>
      </g>
      <g id="Grupo_60937" data-name="Grupo 60937" transform="translate(73.892 1.991)">
        <path id="Trazado_105688" data-name="Trazado 105688" d="M126.279,7.5a46.881,46.881,0,0,0-24.663,86.749,12.911,12.911,0,0,1,6.011,9.233l.8,5.913h35.7l.8-5.912a12.751,12.751,0,0,1,5.9-9.165A46.881,46.881,0,0,0,126.279,7.5Z" transform="translate(-79.401 -7.5)" fill="#f7e365"/>
      </g>
      <g id="Grupo_60938" data-name="Grupo 60938" transform="translate(96.238 9.548)">
        <path id="Trazado_105689" data-name="Trazado 105689" d="M213.642,35.969a49.487,49.487,0,0,1-50.061,79.278,12.906,12.906,0,0,1,5.881,9.148l.8,5.913h35.7l.8-5.912a12.751,12.751,0,0,1,5.9-9.165,46.885,46.885,0,0,0,.978-79.262Z" transform="translate(-163.581 -35.969)" fill="#f3d332"/>
      </g>
      <g id="Grupo_60939" data-name="Grupo 60939" transform="translate(99.319 103.887)">
        <path id="Trazado_105690" data-name="Trazado 105690" d="M215.409,399.942H177.869a2.682,2.682,0,0,1-2.682-2.682v-3.218a2.682,2.682,0,0,1,2.682-2.682h37.541a2.682,2.682,0,0,1,2.682,2.682v3.218A2.682,2.682,0,0,1,215.409,399.942Z" transform="translate(-175.187 -391.361)" fill="#4172ca"/>
      </g>
      <g id="Grupo_60940" data-name="Grupo 60940" transform="translate(128.815 103.887)">
        <path id="Trazado_105691" data-name="Trazado 105691" d="M297.032,391.362H286.306a2.682,2.682,0,0,1,2.682,2.682v3.218a2.682,2.682,0,0,1-2.682,2.682h10.726a2.682,2.682,0,0,0,2.682-2.682v-3.218A2.682,2.682,0,0,0,297.032,391.362Z" transform="translate(-286.306 -391.362)" fill="#3a67c1"/>
      </g>
      <g id="Grupo_60941" data-name="Grupo 60941" transform="translate(106.827 121.048)">
        <path id="Trazado_105692" data-name="Trazado 105692" d="M224.238,468.883H210.592a5.363,5.363,0,0,1-5.241-4.224l-1.88-8.648h27.887l-1.88,8.648A5.363,5.363,0,0,1,224.238,468.883Z" transform="translate(-203.471 -456.012)" fill="#ddebfd"/>
      </g>
      <g id="Grupo_60942" data-name="Grupo 60942" transform="translate(120.353 121.048)">
        <path id="Trazado_105693" data-name="Trazado 105693" d="M261.55,456.012l-1.88,8.648a5.363,5.363,0,0,1-5.241,4.224h7.24a5.363,5.363,0,0,0,5.241-4.224l1.88-8.648Z" transform="translate(-254.429 -456.012)" fill="#bed9fd"/>
      </g>
      <g id="Grupo_60947" data-name="Grupo 60947" transform="translate(100.928 17.811)">
        <g id="Grupo_60943" data-name="Grupo 60943" transform="translate(14.939 58.747)">
          <circle id="Elipse_1669" data-name="Elipse 1669" cx="4.873" cy="4.873" r="4.873" fill="#edf6ff"/>
        </g>
        <g id="Grupo_60946" data-name="Grupo 60946" transform="translate(0)">
          <g id="Grupo_60945" data-name="Grupo 60945">
            <g id="Grupo_60944" data-name="Grupo 60944">
              <path id="Trazado_105694" data-name="Trazado 105694" d="M201.062,116.1a4.873,4.873,0,0,1-4.873-4.873v-9.378a4.873,4.873,0,0,1,4.873-4.873,10.072,10.072,0,0,0,10.052-10.608,10.067,10.067,0,0,0-20.02-.868,10.214,10.214,0,0,0-.1,1.41,4.873,4.873,0,1,1-9.746,0,19.812,19.812,0,0,1,39.6-1.047,19.653,19.653,0,0,1-5.417,14.685,19.9,19.9,0,0,1-9.494,5.559v5.12a4.873,4.873,0,0,1-4.873,4.873Z" transform="translate(-181.25 -67.099)" fill="#edf6ff"/>
            </g>
          </g>
        </g>
      </g>
      <g id="Grupo_60948" data-name="Grupo 60948" transform="translate(71.902)">
        <path id="Trazado_105695" data-name="Trazado 105695" d="M131.456,0A48.821,48.821,0,0,0,86.614,29.355a1.991,1.991,0,1,0,3.653,1.584A44.91,44.91,0,0,1,172.746,66.5a1.991,1.991,0,1,0,3.66,1.567A48.89,48.89,0,0,0,131.456,0Z" transform="translate(-82.587)"/>
        <path id="Trazado_105696" data-name="Trazado 105696" d="M160.541,176.146a1.991,1.991,0,0,0-2.769.512,44.811,44.811,0,0,1-13.5,12.831,14.675,14.675,0,0,0-6.824,10.593l-.568,4.189H104.658l-.568-4.191a14.855,14.855,0,0,0-6.934-10.657,45.023,45.023,0,0,1-20.282-47.646,1.991,1.991,0,1,0-3.894-.83,49.609,49.609,0,0,0-1.079,10.2,48.842,48.842,0,0,0,23.157,41.662,10.887,10.887,0,0,1,5.086,7.807l.522,3.853a4.679,4.679,0,0,0-3.339,4.476v3.218a4.678,4.678,0,0,0,2.811,4.283,4.649,4.649,0,0,0-.128,1.07v3.217a4.677,4.677,0,0,0,4.672,4.672h.538l1.542,7.091a7.4,7.4,0,0,0,7.185,5.791h13.646a7.4,7.4,0,0,0,7.186-5.791l1.542-7.091h.538a4.677,4.677,0,0,0,4.672-4.672v-3.217a4.648,4.648,0,0,0-.128-1.07,4.678,4.678,0,0,0,2.811-4.283v-3.218a4.679,4.679,0,0,0-3.339-4.476l.522-3.851a10.708,10.708,0,0,1,4.967-7.737,48.769,48.769,0,0,0,14.689-13.964,1.991,1.991,0,0,0-.512-2.769Zm-21,36.705H102a.691.691,0,0,1-.691-.691v-3.218a.692.692,0,0,1,.691-.691h37.54a.692.692,0,0,1,.691.691v3.218A.691.691,0,0,1,139.541,212.852Zm-1.991,7.879a.691.691,0,0,1-.69.69h-15.7a1.991,1.991,0,1,0,0,3.982h11.091l-1.358,6.245a3.391,3.391,0,0,1-3.3,2.656H113.948a3.391,3.391,0,0,1-3.3-2.656l-1.358-6.245h2.57a1.991,1.991,0,1,0,0-3.982h-7.183a.691.691,0,0,1-.69-.69v-3.217a.689.689,0,0,1,.6-.68h32.368a.689.689,0,0,1,.6.68v3.217Z" transform="translate(-71.902 -102.375)"/>
        <path id="Trazado_105697" data-name="Trazado 105697" d="M236.891,280.911a6.864,6.864,0,1,0,6.864,6.864A6.872,6.872,0,0,0,236.891,280.911Zm0,9.746a2.882,2.882,0,1,1,2.882-2.882A2.885,2.885,0,0,1,236.891,290.657Z" transform="translate(-188.053 -206.343)"/>
        <path id="Trazado_105698" data-name="Trazado 105698" d="M202.415,102.088A21.8,21.8,0,0,0,196,59.6c-.151,0-.3,0-.451,0a21.79,21.79,0,0,0-21.8,21.8,6.864,6.864,0,0,0,13.727,0,8.216,8.216,0,0,1,.079-1.135,8.074,8.074,0,1,1,8,9.21,6.872,6.872,0,0,0-6.864,6.864v9.378a6.864,6.864,0,1,0,13.727,0v-3.63Zm-2.483-3.418a1.991,1.991,0,0,0-1.5,1.929v5.12a2.882,2.882,0,1,1-5.764,0V96.34a2.885,2.885,0,0,1,2.882-2.882,12.063,12.063,0,0,0,12.04-12.7,12.085,12.085,0,0,0-11.785-11.408c-.091,0-.18,0-.27,0A12.045,12.045,0,0,0,183.5,81.4a2.882,2.882,0,0,1-5.764,0,18,18,0,0,1,.172-2.483,17.818,17.818,0,0,1,17.646-15.338c.122,0,.246,0,.369,0a17.871,17.871,0,0,1,17.43,16.873,17.813,17.813,0,0,1-13.416,18.211Z" transform="translate(-146.714 -43.778)"/>
      </g>
    </g>
  </g>
</svg>
