<svg xmlns="http://www.w3.org/2000/svg" width="180" height="180" viewBox="0 0 180 180">
  <g id="Grupo_61539" data-name="Grupo 61539" transform="translate(-304 -13107)">
    <g id="Grupo_60933" data-name="Grupo 60933" transform="translate(0 1841)">
      <rect id="Rectángulo_7746" data-name="Rectángulo 7746" width="180" height="180" transform="translate(304 11266)" fill="#fff"/>
    </g>
    <g id="check-mark" transform="translate(339 13143.581)">
      <path id="Trazado_105699" data-name="Trazado 105699" d="M116.51,63.254A53.255,53.255,0,1,1,63.254,10,53.256,53.256,0,0,1,116.51,63.254Zm0,0" transform="translate(-7.835 -7.835)" fill="#cbe558"/>
      <path id="Trazado_105700" data-name="Trazado 105700" d="M163.1,139.848l-25.8,25.8-11.293-11.293L113.766,166.6l11.293,11.293L137.3,190.137l38.043-38.043Zm0,0" transform="translate(-89.137 -109.573)" fill="#fff"/>
      <path id="Trazado_105701" data-name="Trazado 105701" d="M129.469,184.467a2.165,2.165,0,0,1-1.531-.634L104.4,160.295a2.165,2.165,0,0,1,0-3.062l12.246-12.246a2.165,2.165,0,0,1,3.062,0l9.762,9.762,24.266-24.267a2.165,2.165,0,0,1,3.062,0l12.246,12.246a2.164,2.164,0,0,1,0,3.061L131,183.834A2.164,2.164,0,0,1,129.469,184.467Zm-20.477-25.7,20.477,20.477,34.982-34.982-9.184-9.185L131,159.341a2.164,2.164,0,0,1-3.061,0l-9.762-9.762Zm0,0" transform="translate(-81.302 -101.738)"/>
      <path id="Trazado_105702" data-name="Trazado 105702" d="M55.406,110.838q-2.121,0-4.248-.162a55.407,55.407,0,1,1,49.3-22.955,2.165,2.165,0,1,1-3.515-2.528A51.09,51.09,0,1,0,85.195,96.946a2.165,2.165,0,1,1,2.527,3.516A55.412,55.412,0,0,1,55.406,110.838Zm0,0"/>
      <path id="Trazado_105703" data-name="Trazado 105703" d="M422.118,424.283a2.165,2.165,0,1,1,1.531-.634A2.181,2.181,0,0,1,422.118,424.283Zm0,0" transform="translate(-329.041 -329.041)"/>
    </g>
  </g>
</svg>
