<svg xmlns="http://www.w3.org/2000/svg" width="180" height="180" viewBox="0 0 180 180">
  <g id="Grupo_60954" data-name="Grupo 60954" transform="translate(-849 -2741)">
    <g id="Grupo_60928" data-name="Grupo 60928" transform="translate(545 -8902)">
      <rect id="Rectángulo_7747" data-name="Rectángulo 7747" width="180" height="180" transform="translate(304 11643)" fill="#fff"/>
    </g>
    <g id="copia-de-seguridad" transform="translate(881.094 2773.094)">
      <path id="Trazado_105740" data-name="Trazado 105740" d="M106.19,197.887v29.887H24v-52.3A7.47,7.47,0,0,1,31.472,168H72.567v7.472H33.34a1.874,1.874,0,0,0-1.868,1.868v41.095A1.874,1.874,0,0,0,33.34,220.3H96.85a1.874,1.874,0,0,0,1.868-1.868V197.887Zm0,0" transform="translate(-18.396 -128.773)" fill="#aab2bd"/>
      <path id="Trazado_105741" data-name="Trazado 105741" d="M123.246,222.415v20.547a1.874,1.874,0,0,1-1.868,1.868H57.868A1.874,1.874,0,0,1,56,242.963V201.868A1.874,1.874,0,0,1,57.868,200H108.3v22.415Zm0,0" transform="translate(-42.924 -153.301)" fill="#e6e9ed"/>
      <path id="Trazado_105742" data-name="Trazado 105742" d="M138.679,280v14.944H120V283.736h11.208V280Zm0,0" transform="translate(-91.981 -214.622)" fill="#ff826e"/>
      <path id="Trazado_105743" data-name="Trazado 105743" d="M106.679,243.208v3.736H88V232h18.679Zm0,0" transform="translate(-67.453 -177.83)" fill="#fcd770"/>
      <path id="Trazado_105744" data-name="Trazado 105744" d="M328.567,104v44.831H280V104Zm0,0" transform="translate(-214.622 -79.717)" fill="#48cfad"/>
      <path id="Trazado_105745" data-name="Trazado 105745" d="M357.5,152.48l4.652,5.361-18.6,16.942L336,164.492l5.6-4.3,2.97,4.053Zm0,0" transform="translate(-257.546 -116.877)" fill="#fcd770"/>
      <path id="Trazado_105746" data-name="Trazado 105746" d="M93.925,424H8v7.472a7.47,7.47,0,0,0,7.472,7.472H90.19a7.47,7.47,0,0,0,7.472-7.472V424Zm0,0" transform="translate(-6.132 -324.999)" fill="#838f9b"/>
      <path id="Trazado_105747" data-name="Trazado 105747" d="M170.151,424l-1.868,7.472H145.868L144,424Zm0,0" transform="translate(-110.377 -324.999)" fill="#fcd770"/>
      <path id="Trazado_105748" data-name="Trazado 105748" d="M232,8V52.831h11.208V30.415h37.359V8Zm0,0" transform="translate(-177.83 -6.132)" fill="#fcd770"/>
      <g id="Grupo_60953" data-name="Grupo 60953">
        <path id="Trazado_105749" data-name="Trazado 105749" d="M115.813,70.982V22.415H104.6V0H52.3V37.359H13.076a9.351,9.351,0,0,0-9.34,9.34V97.133H0v9.34a9.351,9.351,0,0,0,9.34,9.34H84.057a9.351,9.351,0,0,0,9.34-9.34v-9.34H89.661V70.982Zm-3.736-3.736H67.246V26.151h44.831ZM63.51,48.567V70.982H78.454V89.661H14.944V48.567ZM56.038,3.736h44.831V22.415H63.51V44.831H56.038ZM89.661,106.473a5.611,5.611,0,0,1-5.6,5.6H9.34a5.611,5.611,0,0,1-5.6-5.6v-5.6H32.165l1.868,7.472H59.365l1.868-7.472H89.661Zm-53.646-5.6H57.382l-.934,3.736h-19.5Zm49.91-3.736H7.472V46.7a5.611,5.611,0,0,1,5.6-5.6H52.3v3.736H14.944a3.74,3.74,0,0,0-3.736,3.736V89.661A3.74,3.74,0,0,0,14.944,93.4h63.51a3.74,3.74,0,0,0,3.736-3.736V70.982h3.736Zm0,0" fill="#1e1713"/>
        <path id="Trazado_105750" data-name="Trazado 105750" d="M356.279,149.248l-7.106-8.186-12.8,11.649-2.873-3.921-8.566,6.581,9.846,13.441Zm-23.533,4.832,3.071,4.192L348.86,146.4l2.206,2.54L335.34,163.253l-5.233-7.143Zm0,0" transform="translate(-249.067 -108.125)" fill="#1e1713"/>
        <path id="Trazado_105751" data-name="Trazado 105751" d="M256,32h3.736v3.736H256Zm0,0" transform="translate(-196.226 -24.528)" fill="#1e1713"/>
        <path id="Trazado_105752" data-name="Trazado 105752" d="M288,32h29.887v3.736H288Zm0,0" transform="translate(-220.754 -24.528)" fill="#1e1713"/>
        <path id="Trazado_105753" data-name="Trazado 105753" d="M256,64h37.359v3.736H256Zm0,0" transform="translate(-196.226 -49.056)" fill="#1e1713"/>
        <path id="Trazado_105754" data-name="Trazado 105754" d="M102.415,224H80v18.679h7.472v11.208h22.415V235.208h-7.472Zm-18.679,3.736H98.679v11.208H83.736Zm22.415,11.208v11.208H91.208v-7.472h11.208v-3.736Zm0,0" transform="translate(-61.321 -171.698)" fill="#1e1713"/>
        <path id="Trazado_105755" data-name="Trazado 105755" d="M224,320h22.415v3.736H224Zm0,0" transform="translate(-171.698 -245.282)" fill="#1e1713"/>
        <path id="Trazado_105756" data-name="Trazado 105756" d="M224,352h22.415v3.736H224Zm0,0" transform="translate(-171.698 -269.81)" fill="#1e1713"/>
        <path id="Trazado_105757" data-name="Trazado 105757" d="M448,200h3.736v3.736H448Zm0,0" transform="translate(-343.395 -153.301)" fill="#1e1713"/>
        <path id="Trazado_105758" data-name="Trazado 105758" d="M423.472,237.6H416v3.736h11.208V232h-3.736Zm0,0" transform="translate(-318.867 -177.83)" fill="#1e1713"/>
      </g>
    </g>
  </g>
</svg>
