<svg xmlns="http://www.w3.org/2000/svg" width="408.595" height="435.391" viewBox="0 0 408.595 435.391">
  <g id="Grupo_60853" data-name="Grupo 60853" transform="translate(-273.004 -87.628)">
    <g id="Grupo_60834" data-name="Grupo 60834" transform="translate(403.192 87.628)">
      <g id="Grupo_60829" data-name="Grupo 60829" transform="translate(0 69.485)">
        <g id="Grupo_60828" data-name="Grupo 60828" transform="translate(0 15.96)">
          <path id="Trazado_105456" data-name="Trazado 105456" d="M358.543,175.354l27.644-15.96,27.644,15.96-27.644,15.96Z" transform="translate(-358.543 -135.614)" fill="#c1f1f7"/>
          <g id="Grupo_60827" data-name="Grupo 60827" transform="translate(0)">
            <path id="Trazado_105457" data-name="Trazado 105457" d="M386.188,183.51V159.729l-27.644-15.96V167.55Z" transform="translate(-358.543 -143.769)" fill="#396caa"/>
            <path id="Trazado_105458" data-name="Trazado 105458" d="M376.707,159.729l27.644-15.96V167.55l-27.644,15.96Z" transform="translate(-349.063 -143.769)" fill="#396caa"/>
            <path id="Trazado_105459" data-name="Trazado 105459" d="M386.188,183.51V159.729l-27.644-15.96V167.55Z" transform="translate(-358.543 -143.769)" fill="#396caa"/>
          </g>
        </g>
        <path id="Trazado_105460" data-name="Trazado 105460" d="M358.543,149.243l27.644-15.96,27.644,15.96L386.188,165.2Z" transform="translate(-358.543 -133.283)" fill="#d4ecff"/>
        <path id="Trazado_105461" data-name="Trazado 105461" d="M386.188,159.729l-27.644-15.96v2.42l27.644,15.96,27.644-15.96v-2.42Z" transform="translate(-358.543 -127.809)" fill="#fff"/>
        <path id="Trazado_105462" data-name="Trazado 105462" d="M375.923,177.191l1.193.689,1.194-.689V154.554h-2.387Z" transform="translate(-349.472 -122.179)" fill="#fff"/>
      </g>
      <g id="Grupo_60831" data-name="Grupo 60831" transform="translate(89.97)">
        <path id="Trazado_105463" data-name="Trazado 105463" d="M417.658,176.182,445.3,160.221l27.644,15.961L445.3,192.142Z" transform="translate(-417.658 -49.736)" fill="#3facba"/>
        <g id="Grupo_60830" data-name="Grupo 60830">
          <path id="Trazado_105464" data-name="Trazado 105464" d="M445.3,208.6V114.075l-27.644-15.96v94.524Z" transform="translate(-417.658 -82.154)" fill="#ffca28"/>
          <path id="Trazado_105465" data-name="Trazado 105465" d="M435.821,114.075l27.644-15.96v94.524L435.821,208.6Z" transform="translate(-408.177 -82.154)" fill="#e8b30f"/>
          <path id="Trazado_105466" data-name="Trazado 105466" d="M417.658,103.589,445.3,87.628l27.644,15.961L445.3,119.549Z" transform="translate(-417.658 -87.628)" fill="#ffca28"/>
          <path id="Trazado_105467" data-name="Trazado 105467" d="M445.3,114.075l-27.644-15.96v2.745L445.3,116.82l27.644-15.96V98.115Z" transform="translate(-417.658 -82.154)" fill="#fff"/>
        </g>
        <path id="Trazado_105468" data-name="Trazado 105468" d="M435.037,202.175l1.193.689,1.194-.689V109.1h-2.387Z" transform="translate(-408.586 -76.419)" fill="#fff"/>
      </g>
      <g id="Grupo_60833" data-name="Grupo 60833" transform="translate(45.056 57.315)">
        <path id="Trazado_105469" data-name="Trazado 105469" d="M388.147,192.233l27.645-15.96,27.644,15.96-27.644,15.96Z" transform="translate(-388.147 -98.673)" fill="#3facba"/>
        <g id="Grupo_60832" data-name="Grupo 60832">
          <path id="Trazado_105470" data-name="Trazado 105470" d="M415.792,213.372V151.733l-27.644-15.96v61.639Z" transform="translate(-388.147 -119.813)" fill="#d4ecff"/>
          <path id="Trazado_105471" data-name="Trazado 105471" d="M406.311,151.733l27.644-15.96v61.639l-27.644,15.96Z" transform="translate(-378.666 -119.813)" fill="#5793ce"/>
          <path id="Trazado_105472" data-name="Trazado 105472" d="M388.147,141.247l27.644-15.96,27.644,15.96-27.644,15.96Z" transform="translate(-388.147 -125.286)" fill="#5793ce"/>
        </g>
        <path id="Trazado_105473" data-name="Trazado 105473" d="M415.792,151.733l-27.644-15.96v2.59l27.644,15.96,27.644-15.96v-2.59Z" transform="translate(-388.147 -119.813)" fill="#fff"/>
      </g>
    </g>
    <path id="Trazado_105474" data-name="Trazado 105474" d="M464.557,298.434a15.251,15.251,0,0,1-5.321-1.755c-4.577-2.642-4.577-6.927,0-9.569s12-2.642,16.573,0a7.065,7.065,0,0,1,3.039,3.073L510.515,271.9,443.139,233c-5.66-3.268-14.838-3.268-20.5,0l-67.375,38.9,31.028,17.914a13.934,13.934,0,0,0-3.318,1.336c-4.577,2.642-4.577,6.926,0,9.569s12,2.642,16.571,0a8.282,8.282,0,0,0,2.316-1.916l31.027,17.914Z" transform="translate(42.938 74.601)" fill="#efefef"/>
    <path id="Trazado_105475" data-name="Trazado 105475" d="M578.05,310.264l-67.376-38.9-31.666,18.283a7.054,7.054,0,0,0-3.041-3.073c-4.575-2.642-11.995-2.642-16.571,0s-4.577,6.926,0,9.569a15.281,15.281,0,0,0,5.321,1.755L433.05,316.18,465.649,335c.174-1.584,1.3-3.141,3.4-4.353,4.577-2.642,6.808-3.141,11.384-.5s5.61,5.427,1.033,8.07c-2.1,1.211-.641,3.858-3.386,3.959L510.677,361l67.373-38.9C583.71,318.831,583.71,313.532,578.05,310.264Z" transform="translate(83.539 95.905)" fill="#3facba"/>
    <path id="Trazado_105476" data-name="Trazado 105476" d="M405.947,335.63a15.209,15.209,0,0,0-5.2-1.738l31.621-18.256-31.028-17.914a8.255,8.255,0,0,1-2.315,1.916c-4.577,2.642-12,2.642-16.573,0s-4.575-6.927,0-9.569a13.976,13.976,0,0,1,3.319-1.336L354.741,270.82l-67.373,38.9c-5.662,3.268-5.662,8.566,0,11.835l67.375,38.9,31.62-18.256a7.132,7.132,0,0,0,3.012,3c4.577,2.642,12,2.642,16.571,0S410.523,338.274,405.947,335.63Z" transform="translate(5.281 95.621)" fill="#3facba"/>
    <path id="Trazado_105477" data-name="Trazado 105477" d="M479,343.079a16.563,16.563,0,0,0,7.541-1.96c4.577-2.642,4.577-6.927,0-9.569s-12-2.642-16.573,0c-2.1,1.211-3.222,2.768-3.4,4.354l-32.6-18.821-31.621,18.255a15.219,15.219,0,0,1,5.2,1.738c4.577,2.644,4.577,6.926,0,9.569s-12,2.642-16.573,0a7.135,7.135,0,0,1-3.01-3L356.349,361.9l67.376,38.9c5.66,3.268,14.838,3.268,20.5,0L511.6,361.9Z" transform="translate(43.504 119.769)" fill="#3facba"/>
    <g id="Grupo_60843" data-name="Grupo 60843" transform="translate(273.004 207.486)">
      <g id="Grupo_60837" data-name="Grupo 60837" transform="translate(227.828)">
        <g id="Grupo_60835" data-name="Grupo 60835" transform="translate(0 17.83)">
          <path id="Trazado_105478" data-name="Trazado 105478" d="M589.776,220.276,516.715,178.1,478.36,200.24a8.542,8.542,0,0,0-3.682-3.721,18.7,18.7,0,0,0-6.786-2.175c-1.234-1.609-5.368-6.543-5.779-6.66l-11.657-3.368v17.9c-.044,2.129,1.335,4.266,4.149,5.892a18.5,18.5,0,0,0,6.446,2.126l-19.3,11.142L422.7,214.546v114.1L462.18,351.44c.21-1.919,1.572-3.8,4.114-5.272a20.931,20.931,0,0,1,10.94-2.376l0,16.34,39.486,22.8,81.6-47.114c3.505-2.024,5.207-4.689,5.127-7.342l.008,0V214.73Z" transform="translate(-422.697 -178.095)" fill="#396caa"/>
          <path id="Trazado_105479" data-name="Trazado 105479" d="M484.568,178.1l-.283.163V382.764l.286.164,81.6-47.114c3.505-2.024,5.207-4.689,5.128-7.342l.008,0V214.73l-13.681,5.546Z" transform="translate(-390.55 -178.095)" fill="#173d7a"/>
        </g>
        <path id="Trazado_105480" data-name="Trazado 105480" d="M458.53,227.893v-5.16l4.469,2.58Z" transform="translate(-403.993 -136.965)" fill="#396caa"/>
        <path id="Trazado_105481" data-name="Trazado 105481" d="M448.639,207.916V335.868c.215-1.918,1.575-3.8,4.114-5.266,5.543-3.2,14.529-3.2,20.072,0a10.01,10.01,0,0,1,2.788,2.3,37.17,37.17,0,0,1,9.219-1.612V207.916Z" transform="translate(-409.156 -144.699)" fill="#173d7a"/>
        <path id="Trazado_105482" data-name="Trazado 105482" d="M480.7,348.811l.034-111.69L458.53,224.3V336.012Z" transform="translate(-403.993 -136.146)" fill="#396caa"/>
        <path id="Trazado_105483" data-name="Trazado 105483" d="M584.624,202.831c-.446,2.182-2.1,4.3-5.006,5.972l-81.6,47.114L463.6,236.048c-.038-.542-.2-1.633-.2-1.633l-4.87-1.294v2.389l39.484,22.8,81.6-47.116C583.574,208.91,585.232,205.808,584.624,202.831Z" transform="translate(-403.993 -147.354)" fill="#fff"/>
        <path id="Trazado_105484" data-name="Trazado 105484" d="M440.941,184.746v-2.428l1.929.623Z" transform="translate(-413.174 -158.061)" fill="#fff"/>
        <path id="Trazado_105485" data-name="Trazado 105485" d="M598.322,213.5,516.715,166.38,478.36,188.523a8.557,8.557,0,0,0-3.682-3.721c-5.543-3.2-14.53-3.2-20.073,0s-5.543,8.389,0,11.59a18.528,18.528,0,0,0,6.446,2.126L422.7,220.661l39.483,22.8c.212-1.921,1.572-3.806,4.115-5.274,5.542-3.2,14.529-3.2,20.072,0s5.543,8.389,0,11.59a20.059,20.059,0,0,1-9.133,2.374l39.484,22.8,81.6-47.114C605.178,223.871,605.178,217.454,598.322,213.5Z" transform="translate(-422.697 -166.38)" fill="#d4ecff"/>
        <g id="Grupo_60836" data-name="Grupo 60836" transform="translate(0 25.411)">
          <path id="Trazado_105486" data-name="Trazado 105486" d="M445.082,190.066a16.321,16.321,0,0,0,3.473,1.452l2.972-1.715a18.527,18.527,0,0,1-6.446-2.126,7.826,7.826,0,0,1-3.989-4.6C440.463,185.552,441.783,188.161,445.082,190.066Z" transform="translate(-413.174 -183.076)" fill="#fff"/>
          <path id="Trazado_105487" data-name="Trazado 105487" d="M490.358,226.556c.629-2.475-.691-5.083-3.991-6.989-5.543-3.2-14.53-3.2-20.072,0-2.543,1.467-3.9,3.353-4.115,5.274l-39.483-22.8v2.39l39.483,22.8c.212-1.921,1.572-3.806,4.115-5.274,5.542-3.2,14.529-3.2,20.072,0A7.826,7.826,0,0,1,490.358,226.556Z" transform="translate(-422.697 -173.175)" fill="#fff"/>
        </g>
      </g>
      <g id="Grupo_60840" data-name="Grupo 60840" transform="translate(0 0.365)">
        <g id="Grupo_60838" data-name="Grupo 60838" transform="translate(0 17.831)">
          <path id="Trazado_105488" data-name="Trazado 105488" d="M453.771,325.932V214.789L435.033,221.8,416.19,210.921a10,10,0,0,1-2.8,2.319c-5.543,3.2-14.53,3.2-20.073,0-5.415-3.126-5.525-8.146-.358-11.36l4.377,2.45V182.2H383.77l-1.344,9.225L359.75,178.336l-72.186,41.676L273,214.789V325.931h0c0,2.595,1.714,5.188,5.143,7.167l81.607,47.116,38.3-22.111a8.635,8.635,0,0,0,3.647,3.636c5.543,3.2,14.53,3.2,20.073,0,2.877-1.66,4.246-3.858,4.137-6.035V342.018Z" transform="translate(-273.004 -178.336)" fill="#173d7a"/>
          <path id="Trazado_105489" data-name="Trazado 105489" d="M359.75,178.336l-72.186,41.676L273,214.789V325.931h0c0,2.595,1.714,5.188,5.143,7.167l81.607,47.116V178.338Z" transform="translate(-273.004 -178.336)" fill="#396caa"/>
        </g>
        <path id="Trazado_105490" data-name="Trazado 105490" d="M354.258,180.959l-.467,1.207.111.108c-.143.073-.291.142-.429.222-3.3,1.9-4.619,4.513-3.989,6.989a7.813,7.813,0,0,1,3.989-4.6,16.8,16.8,0,0,1,4.02-1.619v-2.39Z" transform="translate(-233.164 -159.178)" fill="#fff"/>
        <path id="Trazado_105491" data-name="Trazado 105491" d="M421.772,245.122a18.406,18.406,0,0,0-6.3-2.106l38.3-22.111-37.582-21.7a10,10,0,0,1-2.8,2.321c-5.543,3.2-14.53,3.2-20.073,0s-5.543-8.389,0-11.588a16.8,16.8,0,0,1,4.02-1.619l-37.582-21.7-81.605,47.114c-6.855,3.959-6.855,10.377,0,14.335l81.607,47.116,38.3-22.111a8.643,8.643,0,0,0,3.647,3.636c5.543,3.2,14.53,3.2,20.073,0S427.315,248.321,421.772,245.122Z" transform="translate(-273.004 -166.62)" fill="#5793ce"/>
        <g id="Grupo_60839" data-name="Grupo 60839" transform="translate(0.013 54.284)">
          <path id="Trazado_105492" data-name="Trazado 105492" d="M421.768,237.684c-5.543,3.2-14.53,3.2-20.073,0a8.644,8.644,0,0,1-3.647-3.636l-38.3,22.111-81.607-47.116c-2.9-1.674-4.56-3.79-5.007-5.972-.609,2.975,1.05,6.077,5.007,8.362l81.607,47.116,38.3-22.111a8.635,8.635,0,0,0,3.647,3.636c5.543,3.2,14.53,3.2,20.073,0,3.3-1.905,4.618-4.514,3.989-6.989A7.818,7.818,0,0,1,421.768,237.684Z" transform="translate(-273.013 -201.878)" fill="#fff"/>
          <path id="Trazado_105493" data-name="Trazado 105493" d="M366.612,224.4a21.184,21.184,0,0,1,2.95.688l35.349-20.41v-2.39Z" transform="translate(-224.156 -202.287)" fill="#fff"/>
        </g>
      </g>
      <g id="Grupo_60842" data-name="Grupo 60842" transform="translate(108.807 68.035)">
        <path id="Trazado_105494" data-name="Trazado 105494" d="M514.2,266.493l-21.145-12.209a20.039,20.039,0,0,0,9.133-2.374c2.319-1.339,3.654-3.027,4.033-4.771l.122.082V228.2l-17.885,6.952,4.114,2.775a20.709,20.709,0,0,0-10.456,2.388c-2.543,1.467-3.9,3.354-4.115,5.274l-39.483-22.8-23.2,13.4-2.408-8.045-12.69-1.07V246.9l3.878-.983a15.542,15.542,0,0,1,2.421,1.1c5.543,3.2,5.543,8.389,0,11.59s-14.529,3.2-20.072,0a8.639,8.639,0,0,1-3.648-3.636l-21.2,12.24-17.1-7.958V369.226L426.1,416.341c6.856,3.959,17.973,3.959,24.829,0l81.605-47.114V259.25Z" transform="translate(-344.495 -204.967)" fill="#e8b30f"/>
        <path id="Trazado_105495" data-name="Trazado 105495" d="M387.4,227.716a15.747,15.747,0,0,0-2.855-1.24l-.346-.676-3.1-.19V228a18.429,18.429,0,0,1,6.3,2.106,7.813,7.813,0,0,1,3.989,4.6C392.024,232.231,390.7,229.622,387.4,227.716Z" transform="translate(-325.386 -203.499)" fill="#fff"/>
        <path id="Trazado_105496" data-name="Trazado 105496" d="M438.513,239.522H408.272c3.7,3.186,3.117,7.537-1.758,10.352-5.543,3.2-14.529,3.2-20.072,0a8.651,8.651,0,0,1-3.648-3.638l-21.2,12.24-17.1-7.958V360.5L426.1,407.612a25.39,25.39,0,0,0,12.412,2.969Z" transform="translate(-344.495 -196.237)" fill="#ffca28"/>
        <path id="Trazado_105497" data-name="Trazado 105497" d="M493.052,242.569a20.04,20.04,0,0,0,9.133-2.376c5.543-3.2,5.543-8.388,0-11.588s-14.53-3.2-20.072,0c-2.543,1.467-3.9,3.353-4.115,5.274l-39.483-22.8-38.3,22.111a18.4,18.4,0,0,1,6.3,2.106c5.543,3.2,5.543,8.388,0,11.588s-14.529,3.2-20.072,0a8.657,8.657,0,0,1-3.648-3.636l-38.3,22.111L426.1,312.479c6.856,3.959,17.973,3.959,24.829,0l81.605-47.114Z" transform="translate(-344.495 -211.082)" fill="#ffca28"/>
        <g id="Grupo_60841" data-name="Grupo 60841" transform="translate(0 24.513)">
          <path id="Trazado_105498" data-name="Trazado 105498" d="M455.227,227.188a7.82,7.82,0,0,1-3.991,4.6,20.041,20.041,0,0,1-9.133,2.376l3.475,2.006a17.908,17.908,0,0,0,5.659-1.991C454.536,232.271,455.856,229.663,455.227,227.188Z" transform="translate(-293.546 -227.188)" fill="#fff"/>
          <path id="Trazado_105499" data-name="Trazado 105499" d="M450.931,293.863c-6.856,3.959-17.973,3.959-24.829,0l-81.607-47.116v2.39L426.1,296.252c6.856,3.959,17.973,3.959,24.829,0l81.605-47.114v-2.389Z" transform="translate(-344.495 -216.979)" fill="#fff"/>
        </g>
      </g>
    </g>
    <g id="Grupo_60849" data-name="Grupo 60849" transform="translate(288.822 116.239)">
      <g id="Grupo_60848" data-name="Grupo 60848">
        <g id="Grupo_60845" data-name="Grupo 60845" transform="translate(5.594)">
          <path id="Trazado_105500" data-name="Trazado 105500" d="M318.69,264.813s-5.774-2.911-9.322,1.425-8.617,14.574-8.774,21.492,5.475,6.452,8.823,4.814,13.125-15.822,13.717-18.6-.7-6.538-1.638-7.273S318.69,264.813,318.69,264.813Z" transform="translate(-280.016 -24.253)" fill="#5793ce"/>
          <path id="Trazado_105501" data-name="Trazado 105501" d="M317.061,264.045l.268,5.983a3.4,3.4,0,0,1-1.691,3.114,6.661,6.661,0,0,1-4.455.693c-4.351-.7-4.739-1.944-5.05-7.925S317.061,264.045,317.061,264.045Z" transform="translate(-277.127 -24.876)" fill="#d4ecff"/>
          <g id="Grupo_60844" data-name="Grupo 60844" transform="translate(0 106.429)">
            <path id="Trazado_105502" data-name="Trazado 105502" d="M305.618,256.748s-5.776-2.913-9.324,1.425-8.616,14.574-8.773,21.492,5.475,6.452,8.821,4.814,13.127-15.822,13.719-18.6-.7-6.537-1.639-7.272S305.618,256.748,305.618,256.748Z" transform="translate(-286.84 -134.892)" fill="#5793ce"/>
            <path id="Trazado_105503" data-name="Trazado 105503" d="M303.988,255.98l.268,5.983a3.393,3.393,0,0,1-1.691,3.112,6.657,6.657,0,0,1-4.455.693c-4.35-.7-4.739-1.942-5.05-7.923S303.988,255.98,303.988,255.98Z" transform="translate(-283.951 -135.515)" fill="#d4ecff"/>
            <path id="Trazado_105504" data-name="Trazado 105504" d="M357.4,187.738c-1.709-27.812-30.121,4.093-30.121,4.093l-19.445,19.06-16.265,18.465a17.261,17.261,0,0,0-4.35,13.865l7.083,53.937a5.3,5.3,0,0,0,5.316,4.605,18.029,18.029,0,0,0,2.624-.23,6.589,6.589,0,0,0,5.852-6.992l-1.3-50.446,35.529-21.4S359.11,215.55,357.4,187.738Z" transform="translate(-287.073 -176.355)" fill="#173d7a"/>
          </g>
          <path id="Trazado_105505" data-name="Trazado 105505" d="M371.717,194.7c-1.709-27.812-30.12,4.091-30.12,4.091l-19.446,19.06-17.51,19.236a17.26,17.26,0,0,0-4.348,13.865l7.083,53.936a5.3,5.3,0,0,0,5.315,4.607,17.993,17.993,0,0,0,2.624-.23,6.59,6.59,0,0,0,5.853-6.992l-1.3-50.446,36.772-22.167S373.426,222.513,371.717,194.7Z" transform="translate(-280.249 -66.292)" fill="#173d7a"/>
          <path id="Trazado_105506" data-name="Trazado 105506" d="M350.378,133.2c21.54,8.931,21.108,21.662,21.108,21.662s-4.219,46.679-2.779,77.853c.6,13.033-69.241,14.027-58.824-20.741,12.281-40.994,7.678-74.181,13.427-79.187S344.808,130.889,350.378,133.2Z" transform="translate(-275.719 -94.069)" fill="#ffca28"/>
          <path id="Trazado_105507" data-name="Trazado 105507" d="M348.127,143.382c-1.128,4.374-6.856,6.678-12.8,5.147s-9.846-6.316-8.719-10.689,6.856-6.678,12.8-5.149S349.253,139.01,348.127,143.382Z" transform="translate(-266.537 -92.963)" fill="#ffc2b0"/>
          <path id="Trazado_105508" data-name="Trazado 105508" d="M340.864,143.732l-3.963,4.3a2.607,2.607,0,0,0-.673,2.068l2.724,23.559a2.564,2.564,0,0,1-.511,1.854l-8.526,11.155a.77.77,0,0,1-1.345-.234l-4.642-14.611a2.568,2.568,0,0,1,.049-1.691l8.167-21.4a2.612,2.612,0,0,0,.114-1.469l-1.195-5.672Z" transform="translate(-267.898 -88.07)" fill="#fff"/>
          <path id="Trazado_105509" data-name="Trazado 105509" d="M339.319,150.381a15.567,15.567,0,0,1-3.893-.5,14.3,14.3,0,0,1-7.551-4.625,7.786,7.786,0,0,1,3.3-12.8,14.346,14.346,0,0,1,8.846-.4c6.482,1.67,10.725,7.028,9.459,11.943C348.469,147.907,344.263,150.381,339.319,150.381Zm-3.236-16.78a11.1,11.1,0,0,0-4.141.761,5.743,5.743,0,0,0-2.472,9.591,12.262,12.262,0,0,0,6.468,3.933c5.385,1.385,10.562-.592,11.544-4.408s-2.595-8.048-7.978-9.435A13.784,13.784,0,0,0,336.083,133.6Z" transform="translate(-266.89 -93.317)" fill="#fff"/>
          <path id="Trazado_105510" data-name="Trazado 105510" d="M330.518,132.97s.186.864-.187,7.691c-.117,2.144,7.4,4.149,9.339,2.207s1.166-3.962,1.632-11.264S330.518,132.97,330.518,132.97Z" transform="translate(-264.494 -94.812)" fill="#ffc2b0"/>
          <path id="Trazado_105511" data-name="Trazado 105511" d="M341.3,130.6s-1.851,6.771-10.972,9.368l.14-6.153Z" transform="translate(-264.494 -93.809)" fill="#ea9c92"/>
          <circle id="Elipse_1645" data-name="Elipse 1645" cx="16.58" cy="16.58" r="16.58" transform="translate(43.832 29.607) rotate(-59.496)" fill="#ffc2b0"/>
          <path id="Trazado_105512" data-name="Trazado 105512" d="M340.323,123.8s-9.129,3.91-15.45,3.954-4.928-5.248-4.928-5.248l18.763-2.712Z" transform="translate(-269.982 -99.451)" fill="#ea9c92"/>
          <path id="Trazado_105513" data-name="Trazado 105513" d="M325.46,131.8s7.952-3.376,14.929-1.968a7.307,7.307,0,0,1,4.216,2.505,2.489,2.489,0,0,0,1.275.922c1.237.28,3.262-4.852,5.666-4.969s4.009,1.586,2.038,4.742-1.306,6.688-.4,7.194,12.136-7.33,3.65-24.141-31.654-7.29-35.007-3.883c0,0-3.532,3.077-6.4.338C315.424,112.544,312.2,136.664,325.46,131.8Z" transform="translate(-272.454 -106.427)" fill="#21214b"/>
          <path id="Trazado_105514" data-name="Trazado 105514" d="M351.518,171.24v12.613a5.137,5.137,0,0,1-1.677,3.8l-25.91,23.624,2.944,4.5,35.7-23.406a6.966,6.966,0,0,0,2.834-4.9l2.441-23.406Z" transform="translate(-267.834 -76.344)" fill="#ffc2b0"/>
          <path id="Trazado_105515" data-name="Trazado 105515" d="M352.965,142.226s7.861,11.821,10.789,42.939c0,0-13.428,4.342-21.049,1.877S352.965,142.226,352.965,142.226Z" transform="translate(-259.021 -87.74)" fill="#ffca28"/>
          <path id="Trazado_105516" data-name="Trazado 105516" d="M342.23,152.047s-3.077,16.469-3.253,24.21a4.944,4.944,0,0,0,3.253,4.773h0Z" transform="translate(-259.98 -82.614)" fill="#ffa726"/>
        </g>
        <g id="Grupo_60846" data-name="Grupo 60846" transform="translate(4.142 125.511)">
          <path id="Trazado_105517" data-name="Trazado 105517" d="M363.1,213.595l-5.727-.756L320.4,191.494a5.142,5.142,0,0,0-4.624.192l-26.2,15.119-3.462-.458v3.447h0a1.348,1.348,0,0,0,.794,1.213l41.9,24.189a5.138,5.138,0,0,0,4.624-.192l28.528-16.465a1.864,1.864,0,0,0,1.131-1.555h0Z" transform="translate(-286.118 -187.776)" fill="#5793ce"/>
          <path id="Trazado_105518" data-name="Trazado 105518" d="M335.321,197.516,332.694,196H303.818l-14.235,8.214-3.462-.458V207.2l0,0a1.348,1.348,0,0,0,.794,1.213l41.9,24.189a4.336,4.336,0,0,0,2.386.447Z" transform="translate(-286.118 -185.184)" fill="#396caa"/>
          <path id="Trazado_105519" data-name="Trazado 105519" d="M287.657,201.3l-1.537-.2v3.447l0,0a1.348,1.348,0,0,0,.794,1.213l.74.426Z" transform="translate(-286.118 -182.524)" fill="#5793ce"/>
          <path id="Trazado_105520" data-name="Trazado 105520" d="M314.449,222.275a5.366,5.366,0,0,0,3.928-.243v-5.866h-3.928Z" transform="translate(-271.331 -174.657)" fill="#5793ce"/>
          <path id="Trazado_105521" data-name="Trazado 105521" d="M328.815,232.869l-41.9-24.187c-1.184-.685-1.036-1.88.333-2.67l28.528-16.466a5.142,5.142,0,0,1,4.624-.192l41.9,24.189c1.186.685,1.036,1.88-.332,2.67l-28.528,16.465A5.133,5.133,0,0,1,328.815,232.869Z" transform="translate(-286.119 -188.893)" fill="#fff"/>
          <path id="Trazado_105522" data-name="Trazado 105522" d="M325.881,226.172,291.045,206.06c-.985-.569-.861-1.563.277-2.221l15.287-8.6a4.271,4.271,0,0,1,3.845-.16L345.29,215.2c.985.569.861,1.563-.276,2.221l-15.288,8.6A4.275,4.275,0,0,1,325.881,226.172Z" transform="translate(-283.894 -185.862)" fill="#d4ecff"/>
        </g>
        <path id="Trazado_105523" data-name="Trazado 105523" d="M306.9,189.3l-.434,2.89a21.392,21.392,0,0,0,.189,7.412l.516,2.548a3.584,3.584,0,0,0,2.87,2.814h0a1.978,1.978,0,0,0,2.318-1.724l.691-6.181s1.581,2.073,2.344,2.073-.854-6.19-2.58-9.692S306.9,189.3,306.9,189.3Z" transform="translate(-271.478 -63.928)" fill="#ffc2b0"/>
        <path id="Trazado_105524" data-name="Trazado 105524" d="M321.806,161.606l-4.5,8.9a17.459,17.459,0,0,0-1.839,6.753l-1.953,30.433-5.914-.14-2.685-34.177a12.484,12.484,0,0,1,.154-3.16l3.065-17.331Z" transform="translate(-272.182 -82.178)" fill="#ffc2b0"/>
        <g id="Grupo_60847" data-name="Grupo 60847" transform="translate(0 107.389)">
          <path id="Trazado_105525" data-name="Trazado 105525" d="M328.565,241.408l-3.513-4.586-36.941-21.388a5.144,5.144,0,0,1-2.141-4.1L286,181.086l-2.123-2.773,2-1.157v0a1.347,1.347,0,0,1,1.449.084l41.866,24.239a5.144,5.144,0,0,1,2.141,4.1l-.037,32.939a1.867,1.867,0,0,1-.782,1.756h0Z" transform="translate(-283.146 -176.986)" fill="#173d7a"/>
          <path id="Trazado_105526" data-name="Trazado 105526" d="M303.018,224.065l-2.625-1.52L285.986,197.52,286,181.086l-2.123-2.773,2-1.157v0a1.347,1.347,0,0,1,1.449.084l41.866,24.239a4.331,4.331,0,0,1,1.578,1.846Z" transform="translate(-283.146 -176.986)" fill="#396caa"/>
          <path id="Trazado_105527" data-name="Trazado 105527" d="M284.82,179.543l-.942-1.23,2-1.157v0a1.347,1.347,0,0,1,1.449.084l.738.428Z" transform="translate(-283.146 -176.986)" fill="#5793ce"/>
          <path id="Trazado_105528" data-name="Trazado 105528" d="M315.376,193.257a5.369,5.369,0,0,1,1.749,3.526l-4.091,2.362-1.96-3.4Z" transform="translate(-268.951 -168.493)" fill="#274f89"/>
          <path id="Trazado_105529" data-name="Trazado 105529" d="M327.447,202.242,285.581,178c-1.184-.686-2.146.04-2.147,1.619l-.037,32.938a5.139,5.139,0,0,0,2.141,4.1L327.4,240.9c1.184.685,2.146-.04,2.147-1.619l.035-32.938A5.136,5.136,0,0,0,327.447,202.242Z" transform="translate(-283.397 -176.59)" fill="#21214b"/>
        </g>
        <path id="Trazado_105530" data-name="Trazado 105530" d="M330.6,199.583l-.671,1.39a9.3,9.3,0,0,1-3.5,3.88l-4.158,2.563a4.14,4.14,0,0,1-4.246.1c-.047-.027-.094-.055-.141-.085a2.5,2.5,0,0,1-.353-3.843l4.345-4.468s-2.441,1.87-3.125,1.117c-.5-.551,2.367-3.245,4.571-3.333a8.7,8.7,0,0,0,4.335-1.819Z" transform="translate(-265.964 -60.152)" fill="#ffc2b0"/>
        <path id="Trazado_105531" data-name="Trazado 105531" d="M326.293,131.822s-15.93,17.335-22.358,33.237c0,0,5.449,9.815,18.783,13.666S326.293,131.822,326.293,131.822Z" transform="translate(-272.677 -93.171)" fill="#ffca28"/>
        <path id="Trazado_105532" data-name="Trazado 105532" d="M315.506,170.518l2.583-24.944L312,168.944A34.805,34.805,0,0,0,315.506,170.518Z" transform="translate(-268.465 -85.993)" fill="#ffa726"/>
        <path id="Trazado_105533" data-name="Trazado 105533" d="M327.933,129.927l-4.28-1.176s2.042,3.216,5.027,4.035,3.447-1.706,3.447-1.706Z" transform="translate(-262.385 -94.774)" fill="#fff"/>
      </g>
      <path id="Trazado_105534" data-name="Trazado 105534" d="M343.124,125.84a2.384,2.384,0,1,1-2.385-2.385A2.384,2.384,0,0,1,343.124,125.84Z" transform="translate(-254.71 -97.538)" fill="#fff"/>
    </g>
    <path id="Trazado_105535" data-name="Trazado 105535" d="M486.2,239.007v111.7l-1.262.736-1.353-.781V238.411Z" transform="translate(109.916 78.704)" fill="#fff"/>
    <path id="Trazado_105536" data-name="Trazado 105536" d="M405.412,389.114q1.306.057,2.613,0V280.578h-2.613Z" transform="translate(69.113 100.714)" fill="#fff"/>
    <path id="Trazado_105537" data-name="Trazado 105537" d="M329.143,347.913l1.307.755,1.307-.755V238.772h-2.615Z" transform="translate(29.303 78.893)" fill="#fff"/>
    <path id="Trazado_105538" data-name="Trazado 105538" d="M405.527,206.936l1.193.689,1.193-.689V146.782h-2.387Z" transform="translate(69.173 30.877)" fill="#fff"/>
    <g id="Grupo_60852" data-name="Grupo 60852" transform="translate(554.464 217.99)">
      <g id="Grupo_60850" data-name="Grupo 60850" transform="translate(0)">
        <ellipse id="Elipse_1646" data-name="Elipse 1646" cx="32.237" cy="18.612" rx="32.237" ry="18.612" transform="translate(8.107 27.972)" fill="#5793ce"/>
        <path id="Trazado_105539" data-name="Trazado 105539" d="M538.621,201.446v-7.415h-2.138a25.764,25.764,0,0,0-9.678-9.053c-15.756-9.1-41.3-9.1-57.054,0a25.754,25.754,0,0,0-9.678,9.053h-2.135v7.356h0c-.027,5.981,3.907,11.967,11.811,16.53,15.755,9.1,41.3,9.1,57.054,0C534.684,213.369,538.621,207.407,538.621,201.446Z" transform="translate(-457.934 -170.737)" fill="#173d7a"/>
        <ellipse id="Elipse_1647" data-name="Elipse 1647" cx="40.343" cy="23.292" rx="40.343" ry="23.292" fill="#ffca28"/>
        <path id="Trazado_105540" data-name="Trazado 105540" d="M526.791,204.8c-15.754,9.1-41.3,9.1-57.054,0-7.55-4.359-11.441-10.018-11.754-15.73-.341,6.207,3.551,12.476,11.754,17.212,15.755,9.1,41.3,9.1,57.054,0,8.2-4.736,12.1-11.005,11.756-17.212C538.234,194.784,534.342,200.443,526.791,204.8Z" transform="translate(-457.921 -165.039)" fill="#fff"/>
      </g>
      <g id="Grupo_60851" data-name="Grupo 60851" transform="translate(19.835 12.248)">
        <path id="Trazado_105541" data-name="Trazado 105541" d="M472.03,200.084a1.812,1.812,0,0,1-1.062-1.485l.04-15.177c0-1.155,1.632-2.093,3.638-2.093s3.625.942,3.624,2.1l-.033,12.584,36.521-4.473c1.963-.24,3.89.484,4.306,1.616s-.837,2.245-2.8,2.485l-40.912,5.01a5.762,5.762,0,0,1-3.042-.423C472.213,200.183,472.12,200.136,472.03,200.084Z" transform="translate(-470.968 -181.329)" fill="#fff"/>
      </g>
    </g>
  </g>
</svg>
